<?xml version="1.0" encoding="UTF-8" standalone="no"?>
<!-- Created with Inkscape (http://www.inkscape.org/) -->

<svg
   width="51.007267mm"
   height="56.794796mm"
   viewBox="0 0 51.007266 56.794796"
   version="1.1"
   id="svg1"
   inkscape:version="1.4 (e7c3feb1, 2024-10-09)"
   sodipodi:docname="logo-base-code-rioja-texto.svg"
   inkscape:export-filename="logo-base.png"
   inkscape:export-xdpi="96"
   inkscape:export-ydpi="96"
   xml:space="preserve"
   xmlns:inkscape="http://www.inkscape.org/namespaces/inkscape"
   xmlns:sodipodi="http://sodipodi.sourceforge.net/DTD/sodipodi-0.dtd"
   xmlns:xlink="http://www.w3.org/1999/xlink"
   xmlns="http://www.w3.org/2000/svg"
   xmlns:svg="http://www.w3.org/2000/svg"><sodipodi:namedview
     id="namedview1"
     pagecolor="#ffffff"
     bordercolor="#666666"
     borderopacity="1.0"
     inkscape:showpageshadow="2"
     inkscape:pageopacity="0.0"
     inkscape:pagecheckerboard="0"
     inkscape:deskcolor="#d1d1d1"
     inkscape:document-units="mm"
     inkscape:zoom="2.3316213"
     inkscape:cx="531.81878"
     inkscape:cy="246.39507"
     inkscape:window-width="2048"
     inkscape:window-height="1220"
     inkscape:window-x="1742"
     inkscape:window-y="45"
     inkscape:window-maximized="0"
     inkscape:current-layer="layer1"><inkscape:page
       x="1.0748935e-08"
       y="1.1951013e-08"
       width="51.007267"
       height="56.794796"
       id="page15"
       margin="0 0 0 0"
       bleed="0" /><inkscape:page
       x="61.007267"
       y="0"
       width="51.007267"
       height="56.794796"
       id="page1"
       margin="0"
       bleed="0" /><inkscape:page
       x="122.01453"
       y="0"
       width="51.347694"
       height="107.85905"
       id="page2"
       margin="0 0 0"
       bleed="0"
       inkscape:export-filename="gallarda.png"
       inkscape:export-xdpi="96"
       inkscape:export-ydpi="96" /></sodipodi:namedview><defs
     id="defs1"><linearGradient
       id="swatch38"
       inkscape:swatch="solid"><stop
         style="stop-color:#000000;stop-opacity:1;"
         offset="0"
         id="stop38" /></linearGradient><linearGradient
       id="swatch35"
       inkscape:swatch="solid"><stop
         style="stop-color:#000000;stop-opacity:1;"
         offset="0"
         id="stop36" /></linearGradient><linearGradient
       id="swatch34"
       inkscape:swatch="solid"><stop
         style="stop-color:#000000;stop-opacity:1;"
         offset="0"
         id="stop34" /></linearGradient><linearGradient
       id="swatch28"
       inkscape:swatch="solid"><stop
         style="stop-color:#d4ff2a;stop-opacity:1;"
         offset="0"
         id="stop28" /></linearGradient><linearGradient
       id="swatch27"
       inkscape:swatch="solid"><stop
         style="stop-color:#d4ff2a;stop-opacity:1;"
         offset="0"
         id="stop27" /></linearGradient><linearGradient
       id="swatch26"
       inkscape:swatch="solid"><stop
         style="stop-color:#000000;stop-opacity:1;"
         offset="0"
         id="stop26" /></linearGradient><linearGradient
       id="swatch8"
       inkscape:swatch="solid"><stop
         style="stop-color:#ffff00;stop-opacity:0.10497197;"
         offset="0"
         id="stop8" /></linearGradient><linearGradient
       id="swatch3"
       inkscape:swatch="solid"><stop
         style="stop-color:#ffff00;stop-opacity:0.10497239;"
         offset="0"
         id="stop3" /></linearGradient><linearGradient
       id="swatch2"
       inkscape:swatch="solid"><stop
         style="stop-color:#000000;stop-opacity:1;"
         offset="0"
         id="stop2" /></linearGradient><linearGradient
       id="swatch6"
       inkscape:swatch="solid"><stop
         style="stop-color:#000000;stop-opacity:1;"
         offset="0"
         id="stop6" /></linearGradient><linearGradient
       id="swatch10"
       inkscape:swatch="solid"><stop
         style="stop-color:#2affd4;stop-opacity:1;"
         offset="0"
         id="stop10" /></linearGradient><linearGradient
       id="swatch9"
       inkscape:label="blanco"><stop
         style="stop-color:#ffffff;stop-opacity:1;"
         offset="0"
         id="stop9" /></linearGradient><linearGradient
       id="swatch7"
       inkscape:swatch="solid"
       inkscape:label="blanco"><stop
         style="stop-color:#ffffff;stop-opacity:1;"
         offset="0"
         id="stop7" /></linearGradient><linearGradient
       id="swatch1"
       inkscape:swatch="solid"><stop
         style="stop-color:#b4b46f;stop-opacity:1;"
         offset="0"
         id="stop1" /></linearGradient><linearGradient
       id="linearGradient48"
       inkscape:label="dos colores"
       inkscape:swatch="gradient"><stop
         style="stop-color:#099ec6;stop-opacity:1;"
         offset="0"
         id="stop47" /><stop
         style="stop-color:#084f67;stop-opacity:1;"
         offset="1"
         id="stop48" /></linearGradient><linearGradient
       id="swatch45"
       inkscape:swatch="solid"
       inkscape:label="Negro+cama"><stop
         style="stop-color:#000000;stop-opacity:1;"
         offset="0"
         id="stop45" /></linearGradient><linearGradient
       id="swatch40"><stop
         style="stop-color:#0086b2;stop-opacity:1;"
         offset="0"
         id="stop40" /><stop
         style="stop-color:#0086b2;stop-opacity:1;"
         offset="1"
         id="stop41" /></linearGradient><linearGradient
       id="swatch33"
       inkscape:swatch="solid"><stop
         style="stop-color:#b42b6f;stop-opacity:1;"
         offset="0"
         id="stop33" /></linearGradient><linearGradient
       id="swatch32"
       inkscape:swatch="solid"><stop
         style="stop-color:#000000;stop-opacity:1;"
         offset="0"
         id="stop32" /></linearGradient><linearGradient
       id="swatch29"
       inkscape:swatch="solid"><stop
         style="stop-color:#000000;stop-opacity:1;"
         offset="0"
         id="stop29" /></linearGradient><linearGradient
       id="swatch22"
       inkscape:swatch="solid"><stop
         style="stop-color:#000000;stop-opacity:1;"
         offset="0"
         id="stop22" /></linearGradient><linearGradient
       id="swatch30"
       inkscape:swatch="solid"
       inkscape:label="Color-base0"><stop
         style="stop-color:#b42b6f;stop-opacity:1;"
         offset="0"
         id="stop30" /></linearGradient><linearGradient
       id="swatch52"
       inkscape:label="Blanco"><stop
         style="stop-color:#6affff;stop-opacity:1;"
         offset="0"
         id="stop52" /><stop
         style="stop-color:#6affa7;stop-opacity:1;"
         offset="1"
         id="stop35" /></linearGradient><rect
       x="242.30128"
       y="240.15703"
       width="437.53302"
       height="106.53633"
       id="rect49" /><rect
       x="242.30128"
       y="240.15703"
       width="298.86539"
       height="90.778648"
       id="rect49-2" /><rect
       x="242.30128"
       y="240.15703"
       width="437.53302"
       height="106.53633"
       id="rect49-1" /><rect
       x="242.30128"
       y="240.15703"
       width="437.53302"
       height="106.53633"
       id="rect49-24" /><linearGradient
       inkscape:collect="always"
       xlink:href="#swatch30"
       id="linearGradient4"
       gradientUnits="userSpaceOnUse"
       x1="287.33347"
       y1="273.17041"
       x2="544.20264"
       y2="273.17041" /><linearGradient
       inkscape:collect="always"
       xlink:href="#swatch30"
       id="linearGradient3"
       x1="22.575703"
       y1="38.671982"
       x2="62.138851"
       y2="38.671982"
       gradientUnits="userSpaceOnUse" /><linearGradient
       inkscape:collect="always"
       xlink:href="#swatch7"
       id="linearGradient5"
       gradientUnits="userSpaceOnUse"
       x1="27.229862"
       y1="38.850342"
       x2="57.0606"
       y2="38.850342" /><linearGradient
       inkscape:collect="always"
       xlink:href="#swatch30"
       id="linearGradient8"
       x1="22.472761"
       y1="38.653149"
       x2="62.269978"
       y2="38.653149"
       gradientUnits="userSpaceOnUse" /><linearGradient
       inkscape:collect="always"
       xlink:href="#swatch33"
       id="linearGradient11"
       x1="22.472761"
       y1="24.965195"
       x2="64.312958"
       y2="24.965195"
       gradientUnits="userSpaceOnUse"
       gradientTransform="matrix(1.0507815,0,0,1.1338583,56.989309,31.42448)" /><linearGradient
       inkscape:collect="always"
       xlink:href="#swatch7"
       id="linearGradient12"
       gradientUnits="userSpaceOnUse"
       x1="287.33347"
       y1="273.17041"
       x2="544.20264"
       y2="273.17041"
       gradientTransform="matrix(0.15984639,0,0,0.15984639,11.903591,17.293644)" /><linearGradient
       inkscape:collect="always"
       xlink:href="#swatch33"
       id="linearGradient3-1"
       x1="22.575703"
       y1="38.671982"
       x2="62.138851"
       y2="38.671982"
       gradientUnits="userSpaceOnUse"
       gradientTransform="translate(59.747037,-2.4028899)" /><linearGradient
       inkscape:collect="always"
       xlink:href="#swatch7"
       id="linearGradient5-1"
       gradientUnits="userSpaceOnUse"
       x1="27.229862"
       y1="38.850342"
       x2="57.0606"
       y2="38.850342"
       gradientTransform="translate(59.747037,-2.4028899)" /><linearGradient
       inkscape:collect="always"
       xlink:href="#swatch7"
       id="linearGradient1"
       gradientUnits="userSpaceOnUse"
       gradientTransform="matrix(0.15984639,0,0,0.15984639,11.903591,17.293644)"
       x1="287.33347"
       y1="273.17041"
       x2="544.20264"
       y2="273.17041" /><rect
       x="242.30128"
       y="240.15703"
       width="437.53302"
       height="106.53633"
       id="rect49-24-5" /><linearGradient
       inkscape:collect="always"
       xlink:href="#swatch30"
       id="linearGradient30"
       gradientUnits="userSpaceOnUse"
       x1="287.33347"
       y1="273.17041"
       x2="544.20264"
       y2="273.17041"
       gradientTransform="matrix(0.15984639,0,0,0.15984639,-46.014278,19.261154)" /><linearGradient
       inkscape:collect="always"
       xlink:href="#swatch30"
       id="linearGradient31"
       gradientUnits="userSpaceOnUse"
       x1="287.33347"
       y1="273.17041"
       x2="544.20264"
       y2="273.17041"
       gradientTransform="matrix(0.15984639,0,0,0.15984639,-46.014278,19.261154)" /><linearGradient
       inkscape:collect="always"
       xlink:href="#swatch7"
       id="linearGradient60"
       gradientUnits="userSpaceOnUse"
       x1="287.33347"
       y1="273.17041"
       x2="544.20264"
       y2="273.17041" /><linearGradient
       inkscape:collect="always"
       xlink:href="#swatch7"
       id="linearGradient60-5"
       gradientUnits="userSpaceOnUse"
       x1="287.33347"
       y1="273.17041"
       x2="544.20264"
       y2="273.17041" /><rect
       x="242.30128"
       y="240.15703"
       width="437.53302"
       height="106.53633"
       id="rect49-24-5-2" /><linearGradient
       inkscape:collect="always"
       xlink:href="#swatch30"
       id="linearGradient66"
       gradientUnits="userSpaceOnUse"
       x1="287.33347"
       y1="273.17041"
       x2="544.20264"
       y2="273.17041" /><linearGradient
       inkscape:collect="always"
       xlink:href="#swatch7"
       id="linearGradient67"
       gradientUnits="userSpaceOnUse"
       x1="287.33347"
       y1="273.17041"
       x2="544.20264"
       y2="273.17041" /><linearGradient
       inkscape:collect="always"
       xlink:href="#swatch33"
       id="linearGradient3-5"
       x1="22.575703"
       y1="38.671982"
       x2="62.138851"
       y2="38.671982"
       gradientUnits="userSpaceOnUse"
       gradientTransform="matrix(0.74844876,0,0,0.74844876,131.69402,32.315397)" /><rect
       x="242.30128"
       y="240.15703"
       width="437.53302"
       height="106.53633"
       id="rect49-24-5-2-4" /><linearGradient
       inkscape:collect="always"
       xlink:href="#swatch7"
       id="linearGradient9"
       gradientUnits="userSpaceOnUse"
       x1="27.229862"
       y1="38.850342"
       x2="57.0606"
       y2="38.850342" /><linearGradient
       inkscape:collect="always"
       xlink:href="#swatch30"
       id="linearGradient17"
       gradientUnits="userSpaceOnUse"
       gradientTransform="matrix(0.11963683,0,0,0.11963683,97.481637,60.316884)"
       x1="287.33347"
       y1="273.17041"
       x2="544.20264"
       y2="273.17041" /><linearGradient
       inkscape:collect="always"
       xlink:href="#swatch30"
       id="linearGradient18"
       gradientUnits="userSpaceOnUse"
       gradientTransform="matrix(0.11963683,0,0,0.11963683,97.481637,60.316884)"
       x1="287.33347"
       y1="273.17041"
       x2="544.20264"
       y2="273.17041" /><linearGradient
       inkscape:collect="always"
       xlink:href="#swatch7"
       id="linearGradient20"
       gradientUnits="userSpaceOnUse"
       x1="287.33347"
       y1="273.17041"
       x2="544.20264"
       y2="273.17041"
       gradientTransform="matrix(0.74844876,0,0,0.74844876,131.69402,32.626521)" /><linearGradient
       inkscape:collect="always"
       xlink:href="#swatch7"
       id="linearGradient28"
       x1="172.67253"
       y1="15.56883"
       x2="183.22552"
       y2="15.56883"
       gradientUnits="userSpaceOnUse"
       gradientTransform="translate(2.2660255,0.26516615)" /><linearGradient
       inkscape:collect="always"
       xlink:href="#swatch7"
       id="linearGradient29"
       x1="158.04633"
       y1="15.398032"
       x2="168.59933"
       y2="15.398032"
       gradientUnits="userSpaceOnUse"
       gradientTransform="translate(-0.08461647,0.26516615)" /><linearGradient
       inkscape:collect="always"
       xlink:href="#swatch7"
       id="linearGradient32"
       x1="144.01057"
       y1="15.455936"
       x2="154.56358"
       y2="15.455936"
       gradientUnits="userSpaceOnUse"
       gradientTransform="translate(-3.0256413,0.26516615)" /><linearGradient
       inkscape:collect="always"
       xlink:href="#swatch30"
       id="linearGradient34"
       x1="137.89842"
       y1="68.002365"
       x2="189.83911"
       y2="68.002365"
       gradientUnits="userSpaceOnUse" /><linearGradient
       inkscape:collect="always"
       xlink:href="#swatch22"
       id="linearGradient37"
       x1="140.70763"
       y1="67.03083"
       x2="178.18036"
       y2="67.03083"
       gradientUnits="userSpaceOnUse"
       gradientTransform="matrix(1.2184615,0,0,1.0224057,-30.803975,-0.42384691)" /><rect
       x="242.30128"
       y="240.15703"
       width="539.04976"
       height="109.37596"
       id="rect49-24-3" /><linearGradient
       inkscape:collect="always"
       xlink:href="#swatch7"
       id="linearGradient53"
       gradientUnits="userSpaceOnUse"
       x1="287.33347"
       y1="273.17041"
       x2="544.20264"
       y2="273.17041" /><linearGradient
       inkscape:collect="always"
       xlink:href="#swatch30"
       id="linearGradient55"
       gradientUnits="userSpaceOnUse"
       x1="287.33347"
       y1="273.17041"
       x2="544.20264"
       y2="273.17041" /></defs><g
     inkscape:label="Capa 1"
     inkscape:groupmode="layer"
     id="layer1"
     transform="translate(-16.180388,-13.810533)"
     style="display:inline"><path
       id="rect25"
       style="fill:url(#linearGradient34);stroke:none;stroke-width:0.593"
       d="m 138.19492,13.810533 h 51.34769 V 121.66958 l -26.07028,-15.80067 -25.27741,15.80067 z"
       sodipodi:nodetypes="cccccc" /><path
       id="rect34"
       style="fill:url(#linearGradient37);stroke-width:0.661869"
       d="m 141.00412,21.033625 h 44.93655 V 113.06742 L 163.85221,98.868554 141.00412,112.53825 Z"
       sodipodi:nodetypes="cccccc" /><rect
       style="font-size:53.1543px;line-height:1.25;font-family:Avenir;-inkscape-font-specification:'Avenir, Normal';text-align:end;white-space:pre;fill:url(#linearGradient11);stroke:none;stroke-width:0.647277"
       id="rect1"
       width="43.964699"
       height="11.767555"
       x="80.603264"
       y="53.847698"
       rx="2.8138998" /><g
       id="g37"
       transform="translate(2.1560462,-0.43538038)"><path
         style="font-weight:500;font-size:53.1543px;line-height:1.25;font-family:Avenir;-inkscape-font-specification:'Avenir, Medium';text-align:end;white-space:pre;display:inline;fill:url(#linearGradient1);stroke-width:0.159761"
         d="m 86.02574,58.440718 q -0.254896,-0.331363 -0.645736,-0.50979 -0.390841,-0.178427 -0.80717,-0.178427 -0.509792,0 -0.926122,0.195419 -0.407832,0.186924 -0.70521,0.518289 -0.288882,0.331363 -0.450316,0.781679 -0.161434,0.44182 -0.161434,0.95161 0,0.475807 0.152937,0.900633 0.152938,0.424827 0.44182,0.747694 0.288881,0.322867 0.705212,0.509792 0.416329,0.186922 0.943113,0.186922 0.518287,0 0.909128,-0.212413 0.39084,-0.212412 0.662729,-0.594757 l 0.688219,0.51829 q -0.06797,0.09346 -0.237903,0.271887 -0.169931,0.169931 -0.450316,0.348358 -0.280385,0.169931 -0.679723,0.297378 -0.390838,0.135945 -0.909128,0.135945 -0.713707,0 -1.29147,-0.271889 -0.569268,-0.271889 -0.9771,-0.713708 -0.399338,-0.441819 -0.61175,-0.994093 -0.212413,-0.560771 -0.212413,-1.130039 0,-0.696714 0.229405,-1.282975 0.229407,-0.594756 0.63724,-1.019581 0.41633,-0.433323 0.994093,-0.671226 0.577763,-0.237902 1.274479,-0.237902 0.594757,0 1.164023,0.229405 0.577764,0.229407 0.943114,0.705212 z m 2.217597,2.701895 q 0,0.305876 0.09346,0.569267 0.09346,0.254896 0.263394,0.441819 0.169929,0.178427 0.416329,0.288882 0.246399,0.101958 0.552274,0.101958 0.305874,0 0.552274,-0.101958 0.246399,-0.110455 0.41633,-0.288882 0.169929,-0.186923 0.263392,-0.441819 0.09346,-0.263391 0.09346,-0.569267 0,-0.305874 -0.09346,-0.56077 -0.09346,-0.263393 -0.263392,-0.44182 -0.169931,-0.186923 -0.41633,-0.288881 -0.2464,-0.110455 -0.552274,-0.110455 -0.305875,0 -0.552274,0.110455 -0.2464,0.101958 -0.416329,0.288881 -0.169931,0.178427 -0.263394,0.44182 -0.09346,0.254896 -0.09346,0.56077 z m -0.815668,0 q 0,-0.441819 0.161436,-0.824163 0.169929,-0.382343 0.458812,-0.671226 0.28888,-0.28888 0.679721,-0.450314 0.39084,-0.169931 0.841156,-0.169931 0.450316,0 0.841155,0.169931 0.390841,0.161434 0.679723,0.450314 0.288881,0.288883 0.450316,0.671226 0.169929,0.382344 0.169929,0.824163 0,0.44182 -0.169929,0.832659 -0.161435,0.382345 -0.450316,0.671225 -0.288882,0.280385 -0.679723,0.450316 -0.390839,0.161434 -0.841155,0.161434 -0.450316,0 -0.841156,-0.161434 -0.390841,-0.169931 -0.679721,-0.450316 -0.288883,-0.28888 -0.458812,-0.671225 -0.161436,-0.390839 -0.161436,-0.832659 z m 9.278203,2.013676 h -0.764686 v -0.577763 h -0.01699 q -0.220909,0.322867 -0.611749,0.501294 -0.382345,0.178427 -0.790177,0.178427 -0.467309,0 -0.849652,-0.161434 -0.373847,-0.161433 -0.645737,-0.450316 -0.263391,-0.28888 -0.407833,-0.671225 -0.144441,-0.382343 -0.144441,-0.832659 0,-0.450316 0.144441,-0.832659 0.144442,-0.39084 0.407833,-0.671225 0.27189,-0.288883 0.645737,-0.450316 0.382343,-0.161434 0.849652,-0.161434 0.433323,0 0.815666,0.186924 0.382343,0.178427 0.58626,0.492797 h 0.01699 v -2.973782 h 0.764686 z m -2.090145,-0.61175 q 0.305875,0 0.552274,-0.101958 0.2464,-0.110455 0.416329,-0.288882 0.169931,-0.186923 0.263394,-0.441819 0.09346,-0.263391 0.09346,-0.569267 0,-0.305874 -0.09346,-0.56077 -0.09346,-0.263393 -0.263394,-0.44182 -0.169929,-0.186923 -0.416329,-0.288881 -0.246399,-0.110455 -0.552274,-0.110455 -0.305874,0 -0.552273,0.110455 -0.2464,0.101958 -0.416331,0.288881 -0.169929,0.178427 -0.263392,0.44182 -0.09346,0.254896 -0.09346,0.56077 0,0.305876 0.09346,0.569267 0.09346,0.254896 0.263392,0.441819 0.169931,0.178427 0.416331,0.288882 0.246399,0.101958 0.552273,0.101958 z m 3.823436,-1.121541 q 0,0.263393 0.110455,0.484303 0.118952,0.212413 0.305874,0.365349 0.186925,0.152938 0.433323,0.237903 0.2464,0.08497 0.509792,0.08497 0.356853,0 0.620243,-0.161434 0.2634,-0.169931 0.4843,-0.44182 l 0.57777,0.44182 q -0.63724,0.824162 -1.784271,0.824162 -0.475805,0 -0.866646,-0.161434 -0.382343,-0.161433 -0.654232,-0.441818 -0.263392,-0.288883 -0.407834,-0.671226 -0.14444,-0.39084 -0.14444,-0.841156 0,-0.450316 0.152938,-0.832659 0.161434,-0.39084 0.433323,-0.671225 0.280385,-0.288883 0.662728,-0.450316 0.382343,-0.161434 0.832659,-0.161434 0.535285,0 0.900635,0.186924 0.37384,0.186923 0.61175,0.492797 0.2379,0.29738 0.33986,0.679723 0.11045,0.373847 0.11045,0.764687 v 0.271888 z m 2.413017,-0.61175 q -0.008,-0.254896 -0.085,-0.467308 -0.068,-0.212413 -0.21241,-0.365351 -0.14444,-0.161433 -0.36535,-0.246398 -0.212416,-0.09346 -0.501299,-0.09346 -0.280385,0 -0.518287,0.110455 -0.229405,0.101958 -0.390841,0.271888 -0.161433,0.169931 -0.254895,0.382344 -0.08497,0.203916 -0.08497,0.407832 z"
         id="path30-7" /><path
         d="m 103.43512,59.800162 h 1.08755 q 0.40784,0 0.68822,-0.08497 0.28888,-0.08496 0.45881,-0.220909 0.16993,-0.144442 0.2464,-0.331365 0.0765,-0.19542 0.0765,-0.416329 0,-0.212414 -0.0765,-0.399336 -0.0765,-0.195421 -0.2464,-0.339863 -0.16993,-0.14444 -0.45881,-0.220909 -0.28038,-0.08496 -0.68822,-0.08496 h -1.08755 z m 0,3.356127 h -0.61175 v -6.015538 h 1.85224 q 0.91762,0 1.44441,0.399337 0.53528,0.399336 0.53528,1.206506 0,0.628743 -0.39934,1.062066 -0.39084,0.424825 -1.13853,0.492798 l 1.73329,2.854831 h -0.74769 l -1.64833,-2.795355 h -1.01958 z m 5.03844,-5.505747 q 0,0.178427 -0.12745,0.297378 -0.12745,0.110455 -0.28038,0.110455 -0.15294,0 -0.28039,-0.110455 -0.12745,-0.118951 -0.12745,-0.297378 0,-0.178427 0.12745,-0.288881 0.12745,-0.118951 0.28039,-0.118951 0.15293,0 0.28038,0.118951 0.12745,0.110454 0.12745,0.288881 z m -0.12745,5.505747 h -0.56077 v -3.976372 h 0.56077 z m 4.75805,-1.988187 q 0,-0.331363 -0.11045,-0.620245 -0.10196,-0.288883 -0.29738,-0.501295 -0.19542,-0.212413 -0.47581,-0.331365 -0.27189,-0.127448 -0.62024,-0.127448 -0.34836,0 -0.62875,0.127448 -0.27188,0.118952 -0.4673,0.331365 -0.18693,0.212412 -0.29738,0.501295 -0.10196,0.288882 -0.10196,0.620245 0,0.331365 0.10196,0.620247 0.11045,0.288881 0.29738,0.501294 0.19542,0.212414 0.4673,0.339861 0.28039,0.118951 0.62875,0.118951 0.34835,0 0.62024,-0.118951 0.28039,-0.127447 0.47581,-0.339861 0.19542,-0.212413 0.29738,-0.501294 0.11045,-0.288882 0.11045,-0.620247 z m 0.61175,0 q 0,0.450316 -0.16143,0.832661 -0.15294,0.382343 -0.43333,0.662728 -0.28038,0.280385 -0.67122,0.44182 -0.38234,0.152936 -0.84965,0.152936 -0.45882,0 -0.84966,-0.152936 -0.38234,-0.161435 -0.66272,-0.44182 -0.28039,-0.280385 -0.44182,-0.662728 -0.15294,-0.382345 -0.15294,-0.832661 0,-0.450314 0.15294,-0.832659 0.16143,-0.382343 0.44182,-0.662728 0.28038,-0.280385 0.66272,-0.433323 0.39084,-0.161433 0.84966,-0.161433 0.46731,0 0.84965,0.161433 0.39084,0.152938 0.67122,0.433323 0.28039,0.280385 0.43333,0.662728 0.16143,0.382345 0.16143,0.832659 z m 1.83525,-3.51756 q 0,0.178427 -0.12744,0.297378 -0.12745,0.110455 -0.28039,0.110455 -0.15294,0 -0.28038,-0.110455 -0.12745,-0.118951 -0.12745,-0.297378 0,-0.178427 0.12745,-0.288881 0.12744,-0.118951 0.28038,-0.118951 0.15294,0 0.28039,0.118951 0.12744,0.110454 0.12744,0.288881 z m -1.61434,6.975645 0.0255,0.0085 q 0.068,0.01699 0.15294,0.03399 0.0765,0.01699 0.14444,0.01699 0.20392,0 0.32287,-0.07647 0.12745,-0.07647 0.18692,-0.203918 0.0595,-0.118951 0.0765,-0.263392 0.017,-0.14444 0.017,-0.288882 v -4.673082 h 0.56077 v 4.766549 q 0,0.08496 -0.008,0.288882 -0.009,0.212412 -0.11046,0.424826 -0.0935,0.212413 -0.33136,0.373847 -0.22941,0.161434 -0.67123,0.161434 -0.2379,0 -0.44182,-0.08496 z m 5.09792,-3.449588 q -0.21242,0 -0.53529,0.02549 -0.31437,0.01699 -0.61174,0.101958 -0.28889,0.07647 -0.5013,0.2464 -0.20392,0.169929 -0.20392,0.467307 0,0.195421 0.0765,0.339863 0.085,0.135944 0.22091,0.229405 0.13595,0.08497 0.29738,0.127448 0.16993,0.03399 0.33986,0.03399 0.30588,0 0.52679,-0.101958 0.2294,-0.101958 0.38234,-0.271887 0.15294,-0.178429 0.22091,-0.407834 0.0765,-0.237902 0.0765,-0.501294 v -0.288883 z m 0.28888,-0.458811 V 60.61583 q 0,-1.028081 -1.01959,-1.028081 -0.69671,0 -1.215,0.467309 l -0.33986,-0.399336 q 0.56077,-0.577763 1.68231,-0.577763 0.28889,0 0.55228,0.08496 0.27189,0.08496 0.46731,0.263392 0.19542,0.169931 0.31437,0.433323 0.11895,0.263393 0.11895,0.628743 v 1.775773 q 0,0.229407 0.017,0.484301 0.0255,0.2464 0.051,0.407834 h -0.54378 q -0.0255,-0.14444 -0.0425,-0.314371 -0.008,-0.16993 -0.008,-0.331365 h -0.017 q -0.2464,0.399338 -0.58626,0.577765 -0.33137,0.169929 -0.81567,0.169929 -0.26339,0 -0.50979,-0.07647 -0.2464,-0.06797 -0.44182,-0.212412 -0.18692,-0.152938 -0.30587,-0.365351 -0.11046,-0.220909 -0.11046,-0.509792 0,-0.484301 0.2464,-0.75619 0.2549,-0.280385 0.62874,-0.416329 0.38235,-0.135945 0.80717,-0.169931 0.43333,-0.03399 0.79018,-0.03399 z"
         id="path31-7"
         style="font-size:53.1543px;line-height:1.25;font-family:Avenir;-inkscape-font-specification:'Avenir, Normal';text-align:end;white-space:pre;display:inline;fill:url(#linearGradient12);stroke-width:0.159761" /></g><ellipse
       style="font-size:53.1543px;line-height:1.25;font-family:Avenir;-inkscape-font-specification:'Avenir, Normal';text-align:end;white-space:pre;display:inline;fill:url(#linearGradient3-1);stroke:none;stroke-width:0.593;stroke-dasharray:none"
       id="ellipse49-4"
       cx="102.10431"
       cy="36.269093"
       rx="19.781574"
       ry="18.75437" /><path
       id="path4-4"
       style="font-size:53.1543px;line-height:1.25;font-family:Avenir;-inkscape-font-specification:'Avenir, Normal';text-align:end;white-space:pre;fill:url(#linearGradient5-1);fill-opacity:1;stroke:none;stroke-width:0.0765039;stroke-opacity:1"
       d="m 101.86953,21.208071 a 0.86412086,0.86412086 0 0 0 -0.86403,0.86403 0.86412086,0.86412086 0 0 0 0.45114,0.75706 v 7.696171 h -1.916167 v -4.510836 a 0.86412086,0.86412086 0 0 0 0.375687,-0.711585 0.86412086,0.86412086 0 0 0 -0.864546,-0.86403 0.86412086,0.86412086 0 0 0 -0.86403,0.86403 0.86412086,0.86412086 0 0 0 0.451135,0.75706 v 4.465361 h -0.665076 c -0.425629,0 -0.822394,0.116525 -1.163753,0.316259 l -2.336808,-2.336808 a 0.86412086,0.86412086 0 0 0 -0.237712,-0.769462 0.86412086,0.86412086 0 0 0 -1.222147,0 0.86412086,0.86412086 0 0 0 0,1.222148 0.86412086,0.86412086 0 0 0 0.853694,0.216007 l 2.268079,2.268596 c -0.290544,0.385392 -0.464055,0.863997 -0.464055,1.385961 v 0.373621 h -3.848343 a 0.86412086,0.86412086 0 0 0 -0.713135,-0.375171 0.86412086,0.86412086 0 0 0 -0.863513,0.863513 0.86412086,0.86412086 0 0 0 0.863513,0.864547 0.86412086,0.86412086 0 0 0 0.757059,-0.450618 h 3.804419 v 1.915645 h -7.117395 a 0.86412086,0.86412086 0 0 0 -0.712101,-0.375171 0.86412086,0.86412086 0 0 0 -0.864547,0.863513 0.86412086,0.86412086 0 0 0 0.864547,0.86403 0.86412086,0.86412086 0 0 0 0.75551,-0.450102 h 7.073986 v 1.915646 h -3.886067 a 0.86412086,0.86412086 0 0 0 -0.712618,-0.375171 0.86412086,0.86412086 0 0 0 -0.86403,0.863513 0.86412086,0.86412086 0 0 0 0.86403,0.86403 0.86412086,0.86412086 0 0 0 0.756026,-0.450618 h 3.842659 v 0.505912 c 0,0.46394 0.136819,0.894496 0.371037,1.25522 l -2.228804,2.228288 a 0.86412086,0.86412086 0 0 0 -0.768429,0.237195 0.86412086,0.86412086 0 0 0 0,1.222148 0.86412086,0.86412086 0 0 0 1.222148,0 0.86412086,0.86412086 0 0 0 0.217558,-0.855245 l 2.186429,-2.18643 c 0.370007,0.253374 0.818529,0.401526 1.302763,0.401526 h 0.65009 v 4.295345 a 0.86412086,0.86412086 0 0 0 -0.375688,0.710551 0.86412086,0.86412086 0 0 0 0.864547,0.864546 0.86412086,0.86412086 0 0 0 0.863513,-0.864546 0.86412086,0.86412086 0 0 0 -0.450618,-0.75861 v -4.247286 h 1.916163 v 7.563362 a 0.86412086,0.86412086 0 0 0 -0.37569,0.711585 0.86412086,0.86412086 0 0 0 0.86403,0.86403 0.86412086,0.86412086 0 0 0 0.86455,-0.86403 0.86412086,0.86412086 0 0 0 -0.45113,-0.75861 v -7.516337 h 1.91564 v 4.333068 a 0.86412086,0.86412086 0 0 0 -0.37517,0.710551 0.86412086,0.86412086 0 0 0 0.86403,0.864547 0.86412086,0.86412086 0 0 0 0.86455,-0.864547 0.86412086,0.86412086 0 0 0 -0.45114,-0.758093 v -4.285526 h 0.64234 c 0.44423,0 0.85714,-0.126418 1.2082,-0.342615 l 2.26239,2.262911 a 0.86412086,0.86412086 0 0 0 0.23771,0.767912 0.86412086,0.86412086 0 0 0 1.22215,0 0.86412086,0.86412086 0 0 0 0,-1.221631 0.86412086,0.86412086 0 0 0 -0.8537,-0.216524 l -2.20813,-2.207101 c 0.2723,-0.378253 0.43408,-0.841957 0.43408,-1.345654 v -0.393258 h 3.85817 a 0.86412086,0.86412086 0 0 0 0.71055,0.375688 0.86412086,0.86412086 0 0 0 0.86454,-0.86403 0.86412086,0.86412086 0 0 0 -0.86454,-0.86403 0.86412086,0.86412086 0 0 0 -0.75603,0.450618 h -3.81269 v -1.916162 h 7.1267 a 0.86412086,0.86412086 0 0 0 0.71055,0.376205 0.86412086,0.86412086 0 0 0 0.86403,-0.864547 0.86412086,0.86412086 0 0 0 -0.86403,-0.86403 0.86412086,0.86412086 0 0 0 -0.75654,0.451135 h -7.08071 v -1.916679 h 3.89486 a 0.86412086,0.86412086 0 0 0 0.71158,0.376205 0.86412086,0.86412086 0 0 0 0.86403,-0.86403 0.86412086,0.86412086 0 0 0 -0.86403,-0.864547 0.86412086,0.86412086 0 0 0 -0.75654,0.451135 h -3.8499 v -0.486792 c 0,-0.490017 -0.15292,-0.941605 -0.41186,-1.314131 l 2.35696,-2.356962 a 0.86412086,0.86412086 0 0 0 0.76843,-0.236678 0.86412086,0.86412086 0 0 0 0,-1.222148 0.86412086,0.86412086 0 0 0 -1.22163,0 0.86412086,0.86412086 0 0 0 -0.21652,0.853695 l -2.33681,2.336291 c -0.35798,-0.228918 -0.78306,-0.362768 -1.24127,-0.362768 h -0.62735 v -4.473629 a 0.86412086,0.86412086 0 0 0 0.37517,-0.711068 0.86412086,0.86412086 0 0 0 -0.86403,-0.86403 0.86412086,0.86412086 0 0 0 -0.86403,0.86403 0.86412086,0.86412086 0 0 0 0.45062,0.756026 v 4.428671 h -1.91565 v -7.742163 a 0.86412086,0.86412086 0 0 0 0.37517,-0.711068 0.86412086,0.86412086 0 0 0 -0.86403,-0.86403 z m -1.59267,13.065869 0.68833,0.03772 -0.0253,0.596863 -0.43873,-0.02946 -1.411801,1.752865 1.427821,1.670699 h 0.45114 V 38.8659 h -0.67645 l -1.953886,-2.216402 z m 2.51717,0 h 0.67644 l 1.95337,2.216919 -1.9389,2.375049 -0.68781,-0.03721 0.0248,-0.596863 0.43925,0.02946 1.41128,-1.753382 -1.4273,-1.670182 h -0.45114 z" /><rect
       style="display:none;fill:url(#linearGradient8);stroke-width:0.593;stroke-dasharray:none"
       id="rect5"
       width="39.797215"
       height="37.590801"
       x="22.472761"
       y="19.857748"
       rx="2" /><text
       xml:space="preserve"
       transform="matrix(0.15984639,0,0,0.15984639,-46.82076,32.728921)"
       id="text49-9"
       style="font-style:normal;font-variant:normal;font-weight:normal;font-stretch:normal;font-size:53.1543px;line-height:1.25;font-family:Avenir;-inkscape-font-specification:'Avenir, Normal';font-variant-ligatures:normal;font-variant-caps:normal;font-variant-numeric:normal;font-variant-east-asian:normal;text-align:end;white-space:pre;shape-inside:url(#rect49-24);display:inline;fill:url(#linearGradient4);stroke:none;stroke-width:0.999467;stroke-dasharray:none;stroke-opacity:1"><tspan
         x="432.66651"
         y="286.91699"
         id="tspan10"><tspan
   style="font-weight:500;-inkscape-font-specification:'Avenir, Medium'"
   id="tspan5">Code</tspan>Rioja
</tspan><tspan
         x="242.30078"
         y="393.4541"
         id="tspan11">s</tspan></text><text
       xml:space="preserve"
       transform="matrix(0.12287724,0,0,0.12287724,113.73637,-5.7237178)"
       id="text49-9-8"
       style="font-style:normal;font-variant:normal;font-weight:normal;font-stretch:normal;font-size:53.1543px;line-height:1.25;font-family:'Heiti TC';-inkscape-font-specification:'Heiti TC, Normal';font-variant-ligatures:normal;font-variant-caps:normal;font-variant-numeric:normal;font-variant-east-asian:normal;text-align:start;white-space:pre;shape-inside:url(#rect49-24-3);display:inline;fill:url(#linearGradient53);stroke:none;stroke-width:0.999467;stroke-dasharray:none;stroke-opacity:1"
       x="-1110.1277"
       y="0"><tspan
         x="242.30078"
         y="292.51324"
         id="tspan12">Awards 2025 
</tspan><tspan
         x="242.30078"
         y="401.89019"
         id="tspan13">s</tspan></text><g
       id="text49-9-5"
       style="font-size:53.1543px;line-height:1.25;font-family:Avenir;-inkscape-font-specification:'Avenir, Normal';text-align:end;white-space:pre;fill:url(#linearGradient60);stroke-width:0.999467"
       inkscape:transform-center-x="3.3857912"
       inkscape:transform-center-y="3.4683913"
       transform="matrix(0.04038291,0,0,0.04038291,95.524783,45.346892)"
       aria-label="®&#10;s"><path
         d="m 641.8287,268.20668 q 0,3.56134 1.2757,6.64428 1.32886,3.0298 3.6145,5.31543 2.28563,2.23249 5.31543,3.56134 3.02979,1.27571 6.53797,1.27571 3.50819,0 6.53798,-1.27571 3.0298,-1.32885 5.31543,-3.61449 2.28564,-2.28563 3.56134,-5.36858 1.32886,-3.13611 1.32886,-6.7506 0,-3.56134 -1.32886,-6.64429 -1.2757,-3.08295 -3.56134,-5.31543 -2.28563,-2.28563 -5.31543,-3.56134 -3.02979,-1.2757 -6.53798,-1.2757 -3.50818,0 -6.53797,1.32886 -3.0298,1.2757 -5.31543,3.56134 -2.28564,2.23248 -3.6145,5.36858 -1.2757,3.08295 -1.2757,6.7506 z m -3.18926,0 q 0,-4.25235 1.59463,-7.86684 1.59463,-3.66765 4.3055,-6.32536 2.71087,-2.65772 6.32536,-4.14604 3.61449,-1.54147 7.70737,-1.54147 4.03973,0 7.65422,1.54147 3.66765,1.48832 6.37852,4.14604 2.71087,2.60456 4.3055,6.21905 1.59463,3.56134 1.59463,7.76053 0,4.25234 -1.59463,7.91999 -1.59463,3.61449 -4.3055,6.27221 -2.71087,2.65771 -6.37852,4.19919 -3.61449,1.48832 -7.65422,1.48832 -4.09288,0 -7.70737,-1.48832 -3.61449,-1.54148 -6.32536,-4.14604 -2.71087,-2.65771 -4.3055,-6.21905 -1.59463,-3.61449 -1.59463,-7.81368 z m 15.73367,-1.22255 h 3.93342 q 1.1694,0 2.28564,-0.0532 1.11624,-0.1063 1.96671,-0.47838 0.90362,-0.37208 1.38201,-1.11625 0.53154,-0.74416 0.53154,-2.12617 0,-1.16939 -0.47839,-1.8604 -0.42523,-0.74416 -1.16939,-1.11624 -0.74416,-0.37208 -1.70094,-0.47839 -0.90362,-0.10631 -1.80725,-0.10631 h -4.94335 z m -3.18925,-10.20563 h 8.39838 q 4.14603,0 6.11274,1.59463 1.96671,1.54148 1.96671,4.99651 0,3.08295 -1.75409,4.51811 -1.75409,1.43517 -4.3055,1.70094 l 6.59113,10.09932 h -3.45503 l -6.2722,-9.83355 h -4.09289 v 9.83355 h -3.18925 z"
         id="path66"
         style="fill:url(#linearGradient67)" /></g><g
       id="g9"><path
         style="font-weight:500;font-size:53.1543px;line-height:1.25;font-family:Avenir;-inkscape-font-specification:'Avenir, Medium';text-align:end;white-space:pre;fill:url(#linearGradient30);stroke-width:0.159761"
         d="m 28.107871,60.408228 q -0.254896,-0.331363 -0.645736,-0.50979 -0.390841,-0.178427 -0.80717,-0.178427 -0.509792,0 -0.926121,0.195419 -0.407833,0.186924 -0.705211,0.518289 -0.288882,0.331363 -0.450316,0.781679 -0.161433,0.44182 -0.161433,0.951611 0,0.475806 0.152936,0.900632 0.152938,0.424827 0.44182,0.747694 0.288881,0.322867 0.705212,0.509792 0.416329,0.186922 0.943113,0.186922 0.518287,0 0.909128,-0.212413 0.39084,-0.212412 0.662729,-0.594757 l 0.688219,0.51829 q -0.06797,0.09346 -0.237903,0.271887 -0.169931,0.169931 -0.450316,0.348358 -0.280385,0.169931 -0.679723,0.297378 -0.390838,0.135945 -0.909128,0.135945 -0.713707,0 -1.29147,-0.271889 -0.569268,-0.271889 -0.9771,-0.713708 -0.399338,-0.441819 -0.61175,-0.994093 -0.212413,-0.560771 -0.212413,-1.130038 0,-0.696715 0.229405,-1.282976 0.229407,-0.594756 0.637241,-1.019581 0.416329,-0.433323 0.994092,-0.671226 0.577763,-0.237902 1.274479,-0.237902 0.594757,0 1.164023,0.229405 0.577764,0.229407 0.943114,0.705212 z m 2.217597,2.701895 q 0,0.305876 0.09346,0.569267 0.09346,0.254896 0.263394,0.441819 0.169929,0.178427 0.416329,0.288882 0.246399,0.101958 0.552274,0.101958 0.305874,0 0.552274,-0.101958 0.246399,-0.110455 0.41633,-0.288882 0.169929,-0.186923 0.263392,-0.441819 0.09346,-0.263391 0.09346,-0.569267 0,-0.305874 -0.09346,-0.56077 -0.09346,-0.263393 -0.263392,-0.44182 -0.169931,-0.186923 -0.41633,-0.288881 -0.2464,-0.110455 -0.552274,-0.110455 -0.305875,0 -0.552274,0.110455 -0.2464,0.101958 -0.416329,0.288881 -0.169931,0.178427 -0.263394,0.44182 -0.09346,0.254896 -0.09346,0.56077 z m -0.815668,0 q 0,-0.441819 0.161436,-0.824163 0.169929,-0.382343 0.458812,-0.671226 0.28888,-0.28888 0.679721,-0.450314 0.39084,-0.169931 0.841156,-0.169931 0.450316,0 0.841155,0.169931 0.390841,0.161434 0.679723,0.450314 0.288881,0.288883 0.450316,0.671226 0.16993,0.382344 0.16993,0.824163 0,0.44182 -0.16993,0.832659 -0.161435,0.382345 -0.450316,0.671225 -0.288882,0.280385 -0.679723,0.450316 -0.390839,0.161434 -0.841155,0.161434 -0.450316,0 -0.841156,-0.161434 -0.390841,-0.169931 -0.679721,-0.450316 -0.288883,-0.28888 -0.458812,-0.671225 Q 29.5098,63.551943 29.5098,63.110123 Z m 9.278203,2.013676 h -0.764686 v -0.577763 h -0.01699 q -0.220909,0.322867 -0.611749,0.501294 -0.382345,0.178427 -0.790177,0.178427 -0.467309,0 -0.849652,-0.161434 -0.373847,-0.161433 -0.645736,-0.450316 -0.263392,-0.28888 -0.407834,-0.671225 -0.144441,-0.382343 -0.144441,-0.832659 0,-0.450316 0.144441,-0.832659 0.144442,-0.39084 0.407834,-0.671225 0.271889,-0.288883 0.645736,-0.450316 0.382343,-0.161434 0.849652,-0.161434 0.433323,0 0.815666,0.186924 0.382343,0.178427 0.58626,0.492797 h 0.01699 v -2.973782 h 0.764686 z m -2.090145,-0.61175 q 0.305875,0 0.552274,-0.101958 0.2464,-0.110455 0.416329,-0.288882 0.169931,-0.186923 0.263394,-0.441819 0.09346,-0.263391 0.09346,-0.569267 0,-0.305874 -0.09346,-0.56077 -0.09346,-0.263393 -0.263394,-0.44182 -0.169929,-0.186923 -0.416329,-0.288881 -0.246399,-0.110455 -0.552274,-0.110455 -0.305874,0 -0.552273,0.110455 -0.2464,0.101958 -0.416331,0.288881 -0.169929,0.178427 -0.263392,0.44182 -0.09346,0.254896 -0.09346,0.56077 0,0.305876 0.09346,0.569267 0.09346,0.254896 0.263392,0.441819 0.169931,0.178427 0.416331,0.288882 0.246399,0.101958 0.552273,0.101958 z m 3.823436,-1.121541 q 0,0.263393 0.110455,0.484303 0.118952,0.212413 0.305874,0.365349 0.186925,0.152938 0.433323,0.237903 0.2464,0.08497 0.509792,0.08497 0.356854,0 0.620245,-0.161433 0.263394,-0.169932 0.484303,-0.441821 l 0.577763,0.441821 q -0.637239,0.824161 -1.784269,0.824161 -0.475805,0 -0.866646,-0.161434 -0.382343,-0.161433 -0.654232,-0.441818 -0.263392,-0.288883 -0.407834,-0.671226 -0.14444,-0.39084 -0.14444,-0.841156 0,-0.450316 0.152938,-0.832659 0.161434,-0.39084 0.433323,-0.671225 0.280385,-0.288883 0.662728,-0.450316 0.382343,-0.161434 0.832659,-0.161434 0.53528,0 0.900632,0.186924 0.373847,0.186923 0.611749,0.492797 0.237903,0.29738 0.339861,0.679723 0.110455,0.373847 0.110455,0.764687 v 0.271888 z m 2.413012,-0.61175 q -0.0085,-0.254896 -0.08496,-0.467307 -0.06797,-0.212414 -0.212413,-0.365352 -0.14444,-0.161433 -0.36535,-0.246398 -0.212413,-0.09346 -0.501296,-0.09346 -0.280385,0 -0.518287,0.110455 -0.229405,0.101958 -0.390841,0.271888 -0.161433,0.169931 -0.254895,0.382344 -0.08497,0.203916 -0.08497,0.407832 z"
         id="path30" /><path
         d="m 45.517248,61.767672 h 1.087555 q 0.407834,0 0.688218,-0.08496 0.288881,-0.08496 0.458812,-0.22091 0.169931,-0.144442 0.246399,-0.331365 0.07647,-0.19542 0.07647,-0.416329 0,-0.212414 -0.07647,-0.399336 -0.07647,-0.195421 -0.246399,-0.339863 -0.169931,-0.14444 -0.458812,-0.220909 -0.280384,-0.08497 -0.688218,-0.08497 h -1.087555 z m 0,3.356127 h -0.61175 v -6.015537 h 1.852243 q 0.917623,0 1.444408,0.399336 0.535281,0.399336 0.535281,1.206506 0,0.628743 -0.399336,1.062066 -0.39084,0.424825 -1.138535,0.492798 l 1.733291,2.854831 h -0.747694 l -1.648325,-2.795355 h -1.019583 z m 5.038441,-5.505747 q 0,0.178427 -0.127447,0.297378 -0.127449,0.110455 -0.280385,0.110455 -0.152938,0 -0.280386,-0.110455 -0.127447,-0.118951 -0.127447,-0.297378 0,-0.178427 0.127447,-0.288881 0.127448,-0.118951 0.280386,-0.118951 0.152936,0 0.280385,0.118951 0.127447,0.110454 0.127447,0.288881 z m -0.127447,5.505747 h -0.560771 v -3.976372 h 0.560771 z m 4.75805,-1.988187 q 0,-0.331363 -0.110454,-0.620245 -0.101958,-0.288883 -0.297378,-0.501295 -0.19542,-0.212413 -0.475805,-0.331364 -0.271889,-0.127449 -0.620247,-0.127449 -0.348357,0 -0.628743,0.127449 -0.271888,0.118951 -0.467308,0.331364 -0.186924,0.212412 -0.297378,0.501295 -0.10196,0.288882 -0.10196,0.620245 0,0.331365 0.10196,0.620247 0.110454,0.288881 0.297378,0.501295 0.19542,0.212413 0.467308,0.33986 0.280386,0.118951 0.628743,0.118951 0.348358,0 0.620247,-0.118951 0.280385,-0.127447 0.475805,-0.33986 0.19542,-0.212414 0.297378,-0.501295 0.110454,-0.288882 0.110454,-0.620247 z m 0.61175,0 q 0,0.450316 -0.161434,0.832661 -0.152938,0.382343 -0.433323,0.662728 -0.280385,0.280385 -0.671225,0.44182 -0.382343,0.152936 -0.849652,0.152936 -0.458812,0 -0.849653,-0.152936 -0.382343,-0.161435 -0.662727,-0.44182 -0.280387,-0.280385 -0.441821,-0.662728 -0.152936,-0.382345 -0.152936,-0.832661 0,-0.450314 0.152936,-0.832659 0.161434,-0.382343 0.441821,-0.662728 0.280384,-0.280385 0.662727,-0.433323 0.390841,-0.161433 0.849653,-0.161433 0.467309,0 0.849652,0.161433 0.39084,0.152938 0.671225,0.433323 0.280385,0.280385 0.433323,0.662728 0.161434,0.382345 0.161434,0.832659 z m 1.835252,-3.51756 q 0,0.178427 -0.127447,0.297378 -0.127447,0.110455 -0.280385,0.110455 -0.152938,0 -0.280385,-0.110455 -0.127449,-0.118951 -0.127449,-0.297378 0,-0.178427 0.127449,-0.288881 0.127447,-0.118951 0.280385,-0.118951 0.152938,0 0.280385,0.118951 0.127447,0.110454 0.127447,0.288881 z m -1.614338,6.975645 0.02549,0.0085 q 0.06797,0.01699 0.152938,0.03399 0.07647,0.01699 0.14444,0.01699 0.203916,0 0.322868,-0.07647 0.127448,-0.07647 0.186924,-0.203918 0.05948,-0.118951 0.07647,-0.263392 0.01699,-0.14444 0.01699,-0.288882 v -4.673087 h 0.56077 v 4.766549 q 0,0.08496 -0.0085,0.288883 -0.0085,0.212411 -0.110455,0.424825 -0.09346,0.212413 -0.331365,0.373847 -0.229405,0.161434 -0.671225,0.161434 -0.237903,0 -0.441819,-0.08496 z m 5.097911,-3.449587 q -0.212412,0 -0.535281,0.02549 -0.314372,0.01699 -0.61175,0.101958 -0.288881,0.07647 -0.501294,0.2464 -0.203916,0.169929 -0.203916,0.467307 0,0.195421 0.07647,0.339863 0.08496,0.135944 0.220909,0.229405 0.135945,0.08497 0.297378,0.127448 0.16993,0.03399 0.339861,0.03399 0.305874,0 0.526785,-0.101958 0.229405,-0.101958 0.382343,-0.271887 0.152938,-0.178429 0.220909,-0.407834 0.07647,-0.237902 0.07647,-0.501294 V 63.14411 Z m 0.288882,-0.458812 V 62.58334 q 0,-1.028081 -1.019583,-1.028081 -0.696715,0 -1.215002,0.467309 l -0.339861,-0.399336 q 0.56077,-0.577763 1.682311,-0.577763 0.288883,0 0.552274,0.08496 0.271889,0.08497 0.46731,0.263392 0.195418,0.169931 0.31437,0.433323 0.118951,0.263393 0.118951,0.628743 v 1.775773 q 0,0.229407 0.01699,0.484301 0.02549,0.2464 0.05098,0.407834 h -0.543778 q -0.02549,-0.14444 -0.04248,-0.314371 -0.0085,-0.16993 -0.0085,-0.331365 h -0.01699 q -0.2464,0.399338 -0.58626,0.577765 -0.331365,0.169929 -0.815666,0.169929 -0.263392,0 -0.509792,-0.07647 -0.246398,-0.06797 -0.441818,-0.212412 -0.186925,-0.152938 -0.305876,-0.365351 -0.110454,-0.220909 -0.110454,-0.509792 0,-0.484301 0.246398,-0.75619 0.254896,-0.280385 0.628743,-0.416329 0.382343,-0.135945 0.80717,-0.169931 0.433323,-0.03398 0.790177,-0.03398 z"
         id="path31"
         style="font-size:53.1543px;line-height:1.25;font-family:Avenir;-inkscape-font-specification:'Avenir, Normal';text-align:end;white-space:pre;fill:url(#linearGradient31);stroke-width:0.159761" /><ellipse
         style="display:inline;fill:url(#linearGradient3);stroke:none;stroke-width:0.593;stroke-dasharray:none"
         id="ellipse49"
         cx="42.357277"
         cy="38.671982"
         rx="19.781574"
         ry="18.75437" /><text
         xml:space="preserve"
         transform="matrix(0.05365663,0,0,0.05365663,25.589698,52.774964)"
         id="text49-9-5-5"
         style="font-style:normal;font-variant:normal;font-weight:normal;font-stretch:normal;font-size:53.1543px;line-height:1.25;font-family:Avenir;-inkscape-font-specification:'Avenir, Normal';font-variant-ligatures:normal;font-variant-caps:normal;font-variant-numeric:normal;font-variant-east-asian:normal;text-align:end;white-space:pre;shape-inside:url(#rect49-24-5-2);display:inline;fill:url(#linearGradient66);stroke:none;stroke-width:0.999467;stroke-dasharray:none;stroke-opacity:1"
         inkscape:transform-center-x="4.4986955"
         inkscape:transform-center-y="4.6084383"><tspan
           x="637.31058"
           y="286.91699"
           id="tspan14">®
</tspan><tspan
           x="242.30078"
           y="393.4541"
           id="tspan15">s</tspan></text><path
         id="path4"
         style="fill:url(#linearGradient5);stroke:none;stroke-width:0.0765039;stroke-opacity:1;fill-opacity:1"
         d="m 42.122493,23.610962 a 0.86412086,0.86412086 0 0 0 -0.864029,0.86403 0.86412086,0.86412086 0 0 0 0.451135,0.75706 v 7.696171 h -1.916162 v -4.510836 a 0.86412086,0.86412086 0 0 0 0.375687,-0.711585 0.86412086,0.86412086 0 0 0 -0.864546,-0.86403 0.86412086,0.86412086 0 0 0 -0.86403,0.86403 0.86412086,0.86412086 0 0 0 0.451135,0.75706 v 4.465361 h -0.665076 c -0.425629,0 -0.822394,0.116525 -1.163753,0.316259 l -2.336808,-2.336808 a 0.86412086,0.86412086 0 0 0 -0.237712,-0.769462 0.86412086,0.86412086 0 0 0 -1.222147,0 0.86412086,0.86412086 0 0 0 0,1.222148 0.86412086,0.86412086 0 0 0 0.853694,0.216007 l 2.268079,2.268596 c -0.290544,0.385392 -0.464055,0.863997 -0.464055,1.385961 v 0.373621 h -3.848343 a 0.86412086,0.86412086 0 0 0 -0.713135,-0.375171 0.86412086,0.86412086 0 0 0 -0.863513,0.863513 0.86412086,0.86412086 0 0 0 0.863513,0.864547 0.86412086,0.86412086 0 0 0 0.757059,-0.450618 h 3.804419 v 1.915645 H 28.80651 a 0.86412086,0.86412086 0 0 0 -0.712101,-0.375171 0.86412086,0.86412086 0 0 0 -0.864547,0.863513 0.86412086,0.86412086 0 0 0 0.864547,0.86403 0.86412086,0.86412086 0 0 0 0.75551,-0.450102 h 7.073986 v 1.915646 h -3.886067 a 0.86412086,0.86412086 0 0 0 -0.712618,-0.375171 0.86412086,0.86412086 0 0 0 -0.86403,0.863513 0.86412086,0.86412086 0 0 0 0.86403,0.86403 0.86412086,0.86412086 0 0 0 0.756026,-0.450618 h 3.842659 v 0.505912 c 0,0.46394 0.136819,0.894496 0.371037,1.25522 l -2.228804,2.228288 a 0.86412086,0.86412086 0 0 0 -0.768429,0.237195 0.86412086,0.86412086 0 0 0 0,1.222148 0.86412086,0.86412086 0 0 0 1.222148,0 0.86412086,0.86412086 0 0 0 0.217558,-0.855245 l 2.186429,-2.18643 c 0.370007,0.253374 0.818529,0.401526 1.302763,0.401526 h 0.65009 v 4.295345 a 0.86412086,0.86412086 0 0 0 -0.375688,0.710551 0.86412086,0.86412086 0 0 0 0.864547,0.864546 0.86412086,0.86412086 0 0 0 0.863513,-0.864546 0.86412086,0.86412086 0 0 0 -0.450618,-0.75861 v -4.247286 h 1.916162 v 7.563362 a 0.86412086,0.86412086 0 0 0 -0.375688,0.711585 0.86412086,0.86412086 0 0 0 0.86403,0.86403 0.86412086,0.86412086 0 0 0 0.864547,-0.86403 0.86412086,0.86412086 0 0 0 -0.451136,-0.75861 v -7.516337 h 1.915646 v 4.333068 a 0.86412086,0.86412086 0 0 0 -0.375171,0.710551 0.86412086,0.86412086 0 0 0 0.86403,0.864547 0.86412086,0.86412086 0 0 0 0.864546,-0.864547 0.86412086,0.86412086 0 0 0 -0.451135,-0.758093 v -4.285526 h 0.642338 c 0.444229,0 0.857139,-0.126418 1.208195,-0.342615 l 2.262394,2.262911 a 0.86412086,0.86412086 0 0 0 0.237712,0.767912 0.86412086,0.86412086 0 0 0 1.222148,0 0.86412086,0.86412086 0 0 0 0,-1.221631 0.86412086,0.86412086 0 0 0 -0.853695,-0.216524 L 47.92524,43.993697 c 0.272299,-0.378253 0.434082,-0.841957 0.434082,-1.345654 v -0.393258 h 3.858163 a 0.86412086,0.86412086 0 0 0 0.71055,0.375688 0.86412086,0.86412086 0 0 0 0.864547,-0.86403 0.86412086,0.86412086 0 0 0 -0.864547,-0.86403 0.86412086,0.86412086 0 0 0 -0.756026,0.450618 h -3.812687 v -1.916162 h 7.126697 a 0.86412086,0.86412086 0 0 0 0.710551,0.376205 0.86412086,0.86412086 0 0 0 0.86403,-0.864547 0.86412086,0.86412086 0 0 0 -0.86403,-0.86403 0.86412086,0.86412086 0 0 0 -0.756543,0.451135 h -7.080705 v -1.916679 h 3.894853 a 0.86412086,0.86412086 0 0 0 0.711584,0.376205 0.86412086,0.86412086 0 0 0 0.86403,-0.86403 0.86412086,0.86412086 0 0 0 -0.86403,-0.864547 0.86412086,0.86412086 0 0 0 -0.756543,0.451135 h -3.849894 v -0.486792 c 0,-0.490017 -0.152921,-0.941605 -0.411861,-1.314131 l 2.356962,-2.356962 a 0.86412086,0.86412086 0 0 0 0.768429,-0.236678 0.86412086,0.86412086 0 0 0 0,-1.222148 0.86412086,0.86412086 0 0 0 -1.221631,0 0.86412086,0.86412086 0 0 0 -0.216525,0.853695 l -2.336808,2.336291 C 46.93991,33.062073 46.514827,32.928223 46.05662,32.928223 h -0.627352 v -4.473629 a 0.86412086,0.86412086 0 0 0 0.375171,-0.711068 0.86412086,0.86412086 0 0 0 -0.86403,-0.86403 0.86412086,0.86412086 0 0 0 -0.86403,0.86403 0.86412086,0.86412086 0 0 0 0.450619,0.756026 v 4.428671 H 42.611353 V 25.18606 a 0.86412086,0.86412086 0 0 0 0.37517,-0.711068 0.86412086,0.86412086 0 0 0 -0.86403,-0.86403 z m -1.592667,13.065869 0.68833,0.03772 -0.02532,0.596863 -0.438732,-0.02946 -1.411801,1.752865 1.42782,1.670699 h 0.451136 v 0.563273 h -0.676445 l -1.953886,-2.216402 z m 2.517159,0 h 0.676444 l 1.95337,2.216919 -1.9389,2.375049 -0.687814,-0.03721 0.02481,-0.596863 0.43925,0.02946 1.411283,-1.753382 -1.427303,-1.670182 H 43.04699 Z" /></g><g
       id="g53"
       transform="matrix(1.1969578,0,0,1.1969578,-32.517584,-28.040952)"><path
         style="font-weight:500;font-size:53.1543px;line-height:1.25;font-family:Avenir;-inkscape-font-specification:'Avenir, Medium';text-align:end;white-space:pre;fill:url(#linearGradient17);stroke-width:0.119573"
         d="m 152.95827,91.11336 q -0.19078,-0.248008 -0.48331,-0.381551 -0.29252,-0.133544 -0.60412,-0.133544 -0.38155,0 -0.69315,0.146261 -0.30524,0.139903 -0.52782,0.387913 -0.21621,0.248008 -0.33703,0.585047 -0.12083,0.330679 -0.12083,0.712232 0,0.356116 0.11447,0.674077 0.11446,0.317961 0.33068,0.55961 0.21621,0.24165 0.52781,0.381553 0.3116,0.139902 0.70588,0.139902 0.3879,0 0.68043,-0.15898 0.29252,-0.15898 0.49602,-0.445145 l 0.51509,0.387913 q -0.0509,0.06995 -0.17805,0.203494 -0.12719,0.127184 -0.33704,0.260728 -0.20985,0.127184 -0.50874,0.222572 -0.29252,0.101748 -0.68044,0.101748 -0.53417,0 -0.9666,-0.203495 -0.42607,-0.203495 -0.73131,-0.534174 -0.29888,-0.330679 -0.45786,-0.744028 -0.15898,-0.419708 -0.15898,-0.845775 0,-0.521456 0.1717,-0.960242 0.1717,-0.445144 0.47694,-0.763104 0.3116,-0.32432 0.74403,-0.502378 0.43243,-0.178058 0.95388,-0.178058 0.44514,0 0.87121,0.171698 0.43243,0.171699 0.70587,0.527815 z m 1.65976,2.02223 q 0,0.228933 0.07,0.426067 0.07,0.190777 0.19713,0.330679 0.12719,0.133544 0.3116,0.216214 0.18442,0.07631 0.41336,0.07631 0.22893,0 0.41334,-0.07631 0.18442,-0.08267 0.3116,-0.216214 0.12719,-0.139902 0.19714,-0.330679 0.07,-0.197134 0.07,-0.426067 0,-0.228931 -0.07,-0.419707 -0.07,-0.197137 -0.19714,-0.33068 -0.12718,-0.139902 -0.3116,-0.216213 -0.18441,-0.08267 -0.41334,-0.08267 -0.22894,0 -0.41336,0.08267 -0.18441,0.07631 -0.3116,0.216213 -0.12718,0.133543 -0.19713,0.33068 -0.07,0.190776 -0.07,0.419707 z m -0.61049,0 q 0,-0.330679 0.12083,-0.616844 0.12718,-0.286164 0.3434,-0.502378 0.21621,-0.216212 0.50873,-0.337037 0.29253,-0.127184 0.62957,-0.127184 0.33703,0 0.62955,0.127184 0.29253,0.120825 0.50874,0.337037 0.21621,0.216214 0.33704,0.502378 0.12719,0.286165 0.12719,0.616844 0,0.33068 -0.12719,0.623203 -0.12083,0.286165 -0.33704,0.502377 -0.21621,0.209854 -0.50874,0.337039 -0.29252,0.120825 -0.62956,0.120825 -0.33703,0 -0.62956,-0.120825 -0.29252,-0.127185 -0.50873,-0.337039 -0.21622,-0.216212 -0.3434,-0.502377 -0.12083,-0.292523 -0.12083,-0.623203 z m 6.94426,1.507134 h -0.57233 v -0.432426 h -0.0127 q -0.16534,0.241649 -0.45786,0.375192 -0.28617,0.133544 -0.59141,0.133544 -0.34976,0 -0.63592,-0.120825 -0.27981,-0.120825 -0.4833,-0.337039 -0.19714,-0.216212 -0.30524,-0.502377 -0.10811,-0.286164 -0.10811,-0.623203 0,-0.337038 0.10811,-0.623202 0.1081,-0.292524 0.30524,-0.502378 0.20349,-0.216214 0.4833,-0.337038 0.28616,-0.120825 0.63592,-0.120825 0.32432,0 0.61049,0.139903 0.28616,0.133543 0.43878,0.368833 h 0.0127 v -2.225724 h 0.57233 z m -1.56436,-0.457864 q 0.22892,0 0.41334,-0.07631 0.18442,-0.08267 0.3116,-0.216214 0.12719,-0.139902 0.19714,-0.330679 0.07,-0.197134 0.07,-0.426067 0,-0.228931 -0.07,-0.419707 -0.07,-0.197137 -0.19714,-0.33068 -0.12718,-0.139902 -0.3116,-0.216213 -0.18442,-0.08267 -0.41334,-0.08267 -0.22894,0 -0.41336,0.08267 -0.18442,0.07631 -0.3116,0.216213 -0.12718,0.133543 -0.19713,0.33068 -0.07,0.190776 -0.07,0.419707 0,0.228933 0.07,0.426067 0.07,0.190777 0.19713,0.330679 0.12718,0.133544 0.3116,0.216214 0.18442,0.07631 0.41336,0.07631 z m 2.86164,-0.839416 q 0,0.197136 0.0827,0.362476 0.089,0.15898 0.22893,0.273445 0.13991,0.114466 0.32432,0.178058 0.18442,0.0636 0.38156,0.0636 0.26708,0 0.46421,-0.120824 0.19714,-0.127186 0.36248,-0.330681 l 0.43243,0.330681 q -0.47694,0.616842 -1.33544,0.616842 -0.35612,0 -0.64864,-0.120825 -0.28616,-0.120825 -0.48966,-0.330678 -0.19713,-0.216214 -0.30524,-0.502379 -0.1081,-0.292523 -0.1081,-0.629562 0,-0.337038 0.11447,-0.623202 0.12082,-0.292524 0.32431,-0.502378 0.20985,-0.216214 0.49602,-0.337038 0.28616,-0.120825 0.62321,-0.120825 0.40063,0 0.67407,0.139903 0.2798,0.139902 0.45786,0.368833 0.17806,0.222574 0.25437,0.508738 0.0827,0.279805 0.0827,0.572329 v 0.203494 z m 1.80602,-0.457863 q -0.006,-0.190777 -0.0636,-0.349756 -0.0509,-0.158981 -0.15898,-0.273447 -0.10811,-0.120824 -0.27345,-0.184416 -0.15898,-0.06995 -0.37519,-0.06995 -0.20986,0 -0.38791,0.08267 -0.1717,0.07631 -0.29253,0.203494 -0.12082,0.127184 -0.19078,0.286165 -0.0636,0.15262 -0.0636,0.305241 z"
         id="path30-0" /><path
         d="m 165.9883,92.130834 h 0.81397 q 0.30525,0 0.5151,-0.06359 0.21621,-0.06359 0.3434,-0.16534 0.12718,-0.108107 0.18441,-0.248009 0.0573,-0.146262 0.0573,-0.311601 0,-0.158981 -0.0573,-0.298883 -0.0572,-0.146262 -0.18441,-0.25437 -0.12719,-0.108106 -0.3434,-0.165339 -0.20985,-0.0636 -0.5151,-0.0636 h -0.81397 z m 0,2.51189 h -0.45787 v -4.502322 h 1.38631 q 0.68679,0 1.08107,0.298883 0.40063,0.298882 0.40063,0.903008 0,0.470582 -0.29889,0.794902 -0.29252,0.31796 -0.85213,0.368834 l 1.29728,2.136695 h -0.55961 l -1.23369,-2.09218 h -0.7631 z m 3.77101,-4.12077 q 0,0.133544 -0.0954,0.222572 -0.0954,0.08267 -0.20985,0.08267 -0.11447,0 -0.20986,-0.08267 -0.0954,-0.08903 -0.0954,-0.222572 0,-0.133543 0.0954,-0.216213 0.0954,-0.08903 0.20986,-0.08903 0.11446,0 0.20985,0.08903 0.0954,0.08267 0.0954,0.216213 z m -0.0954,4.12077 h -0.41971 v -2.976111 h 0.41971 z m 3.56116,-1.488057 q 0,-0.248008 -0.0827,-0.464221 -0.0763,-0.216214 -0.22257,-0.375194 -0.14626,-0.15898 -0.35612,-0.248009 -0.20349,-0.09539 -0.46422,-0.09539 -0.26073,0 -0.47058,0.09539 -0.20349,0.08903 -0.34976,0.248009 -0.1399,0.15898 -0.22257,0.375194 -0.0763,0.216213 -0.0763,0.464221 0,0.24801 0.0763,0.464224 0.0827,0.216212 0.22257,0.375193 0.14627,0.15898 0.34976,0.254368 0.20985,0.08903 0.47058,0.08903 0.26073,0 0.46422,-0.08903 0.20986,-0.09539 0.35612,-0.254368 0.14626,-0.158981 0.22257,-0.375193 0.0827,-0.216214 0.0827,-0.464224 z m 0.45786,0 q 0,0.337039 -0.12082,0.623205 -0.11447,0.286164 -0.32433,0.496018 -0.20985,0.209853 -0.50237,0.330679 -0.28616,0.114465 -0.63592,0.114465 -0.34339,0 -0.63593,-0.114465 -0.28616,-0.120826 -0.49601,-0.330679 -0.20986,-0.209854 -0.33068,-0.496018 -0.11447,-0.286166 -0.11447,-0.623205 0,-0.337036 0.11447,-0.623202 0.12082,-0.286164 0.33068,-0.496018 0.20985,-0.209854 0.49601,-0.32432 0.29254,-0.120824 0.63593,-0.120824 0.34976,0 0.63592,0.120824 0.29252,0.114466 0.50237,0.32432 0.20986,0.209854 0.32433,0.496018 0.12082,0.286166 0.12082,0.623202 z m 1.37359,-2.632713 q 0,0.133544 -0.0954,0.222572 -0.0954,0.08267 -0.20986,0.08267 -0.11447,0 -0.20985,-0.08267 -0.0954,-0.08903 -0.0954,-0.222572 0,-0.133543 0.0954,-0.216213 0.0954,-0.08903 0.20985,-0.08903 0.11447,0 0.20986,0.08903 0.0954,0.08267 0.0954,0.216213 z m -1.20824,5.220913 0.0191,0.0064 q 0.0509,0.01272 0.11446,0.02544 0.0573,0.01272 0.10811,0.01272 0.15262,0 0.24165,-0.05723 0.0954,-0.05723 0.13991,-0.152622 0.0445,-0.08903 0.0573,-0.197136 0.0127,-0.108106 0.0127,-0.216213 V 91.66666 h 0.41971 v 3.567517 q 0,0.06359 -0.006,0.216214 -0.006,0.158979 -0.0827,0.31796 -0.07,0.15898 -0.24801,0.279806 -0.1717,0.120825 -0.50238,0.120825 -0.17806,0 -0.33068,-0.06359 z m 3.81552,-2.581839 q -0.15898,0 -0.40063,0.01908 -0.23529,0.01272 -0.45786,0.07631 -0.21622,0.05723 -0.3752,0.184418 -0.15261,0.127183 -0.15261,0.349755 0,0.146263 0.0573,0.25437 0.0636,0.101747 0.16534,0.171698 0.10175,0.0636 0.22257,0.09539 0.12718,0.02544 0.25437,0.02544 0.22893,0 0.39427,-0.07631 0.1717,-0.07631 0.28616,-0.203494 0.11447,-0.133545 0.16534,-0.305242 0.0573,-0.178058 0.0573,-0.375193 v -0.216218 z m 0.21622,-0.343397 v -0.07631 q 0,-0.769466 -0.76311,-0.769466 -0.52146,0 -0.90937,0.349757 l -0.25437,-0.298882 q 0.41971,-0.432426 1.25912,-0.432426 0.21622,0 0.41336,0.06359 0.20349,0.0636 0.34976,0.197135 0.14626,0.127185 0.23528,0.32432 0.089,0.197136 0.089,0.470582 v 1.329075 q 0,0.1717 0.0127,0.362475 0.0191,0.184417 0.0382,0.305243 h -0.40699 q -0.0191,-0.108106 -0.0318,-0.235291 -0.007,-0.127184 -0.007,-0.24801 h -0.0127 q -0.18442,0.298884 -0.43879,0.432428 -0.248,0.127183 -0.61049,0.127183 -0.19713,0 -0.38155,-0.05723 -0.18441,-0.05087 -0.33068,-0.158979 -0.1399,-0.114467 -0.22892,-0.273447 -0.0827,-0.165339 -0.0827,-0.381553 0,-0.362475 0.18442,-0.56597 0.19078,-0.209853 0.47059,-0.311601 0.28616,-0.101747 0.60412,-0.127184 0.32432,-0.02543 0.5914,-0.02543 z"
         id="path31-4"
         style="font-size:53.1543px;line-height:1.25;font-family:Avenir;-inkscape-font-specification:'Avenir, Normal';text-align:end;white-space:pre;fill:url(#linearGradient18);stroke-width:0.119573" /><text
         xml:space="preserve"
         transform="matrix(0.04015924,0,0,0.04015924,151.07355,85.400253)"
         id="text49-9-5-5-0"
         style="font-style:normal;font-variant:normal;font-weight:normal;font-stretch:normal;font-size:53.1543px;line-height:1.25;font-family:Avenir;-inkscape-font-specification:'Avenir, Normal';font-variant-ligatures:normal;font-variant-caps:normal;font-variant-numeric:normal;font-variant-east-asian:normal;text-align:end;white-space:pre;shape-inside:url(#rect49-24-5-2-4);display:inline;fill:url(#linearGradient55);stroke:none;stroke-width:0.999467;stroke-dasharray:none;stroke-opacity:1"
         inkscape:transform-center-x="3.3670389"
         inkscape:transform-center-y="3.4491801"><tspan
           x="637.31058"
           y="286.91699"
           id="tspan16">®
</tspan><tspan
           x="242.30078"
           y="393.4541"
           id="tspan17">s</tspan></text></g><ellipse
       style="display:inline;fill:url(#linearGradient3-5);stroke:none;stroke-width:0.44383;stroke-dasharray:none"
       id="ellipse49-6"
       cx="163.39627"
       cy="61.259392"
       rx="14.805494"
       ry="14.036685" /><path
       id="path4-2"
       style="fill:url(#linearGradient20);fill-opacity:1;stroke:none;stroke-width:0.0572593;stroke-opacity:1"
       d="m 163.22054,50.298116 a 0.64675019,0.64675019 0 0 0 -0.64668,0.646682 0.64675019,0.64675019 0 0 0 0.33766,0.566621 v 5.76019 h -1.43415 v -3.37613 a 0.64675019,0.64675019 0 0 0 0.28118,-0.532585 0.64675019,0.64675019 0 0 0 -0.64707,-0.646682 0.64675019,0.64675019 0 0 0 -0.64668,0.646682 0.64675019,0.64675019 0 0 0 0.33765,0.566621 v 3.342094 h -0.49777 c -0.31857,0 -0.61553,0.08721 -0.87102,0.236703 l -1.74897,-1.748981 a 0.64675019,0.64675019 0 0 0 -0.17792,-0.575903 0.64675019,0.64675019 0 0 0 -0.91471,0 0.64675019,0.64675019 0 0 0 0,0.914715 0.64675019,0.64675019 0 0 0 0.63894,0.161671 l 1.69754,1.697927 c -0.21745,0.288447 -0.34732,0.646658 -0.34732,1.037321 v 0.279636 h -2.88029 a 0.64675019,0.64675019 0 0 0 -0.53374,-0.280796 0.64675019,0.64675019 0 0 0 -0.6463,0.646295 0.64675019,0.64675019 0 0 0 0.6463,0.64707 0.64675019,0.64675019 0 0 0 0.56662,-0.337265 h 2.84741 v 1.433762 h -5.32701 a 0.64675019,0.64675019 0 0 0 -0.53297,-0.280796 0.64675019,0.64675019 0 0 0 -0.64707,0.646295 0.64675019,0.64675019 0 0 0 0.64707,0.646682 0.64675019,0.64675019 0 0 0 0.56546,-0.336878 h 5.29452 v 1.433763 h -2.90852 a 0.64675019,0.64675019 0 0 0 -0.53336,-0.280796 0.64675019,0.64675019 0 0 0 -0.64668,0.646295 0.64675019,0.64675019 0 0 0 0.64668,0.646682 0.64675019,0.64675019 0 0 0 0.56585,-0.337264 h 2.87603 v 0.378649 c 0,0.347235 0.1024,0.669484 0.2777,0.939468 l -1.66814,1.667759 a 0.64675019,0.64675019 0 0 0 -0.57513,0.177528 0.64675019,0.64675019 0 0 0 0,0.914716 0.64675019,0.64675019 0 0 0 0.91471,0 0.64675019,0.64675019 0 0 0 0.16284,-0.640108 l 1.63642,-1.63643 c 0.27693,0.189637 0.61263,0.300521 0.97506,0.300521 h 0.48656 v 3.214846 a 0.64675019,0.64675019 0 0 0 -0.28119,0.531811 0.64675019,0.64675019 0 0 0 0.64707,0.647068 0.64675019,0.64675019 0 0 0 0.6463,-0.647068 0.64675019,0.64675019 0 0 0 -0.33727,-0.567781 V 66.26985 h 1.43415 v 5.660789 a 0.64675019,0.64675019 0 0 0 -0.28119,0.532585 0.64675019,0.64675019 0 0 0 0.64668,0.646682 0.64675019,0.64675019 0 0 0 0.64708,-0.646682 0.64675019,0.64675019 0 0 0 -0.33765,-0.567781 V 66.26985 h 1.43376 v 3.24308 a 0.64675019,0.64675019 0 0 0 -0.2808,0.531811 0.64675019,0.64675019 0 0 0 0.64668,0.647069 0.64675019,0.64675019 0 0 0 0.64707,-0.647069 0.64675019,0.64675019 0 0 0 -0.33765,-0.567394 V 66.26985 h 0.48076 c 0.33248,0 0.64152,-0.09462 0.90427,-0.256429 l 1.69329,1.693672 a 0.64675019,0.64675019 0 0 0 0.17791,0.574743 0.64675019,0.64675019 0 0 0 0.91472,0 0.64675019,0.64675019 0 0 0 0,-0.914328 0.64675019,0.64675019 0 0 0 -0.63895,-0.162057 l -1.65268,-1.651902 c 0.20381,-0.283103 0.32489,-0.630162 0.32489,-1.007153 v -0.294334 h 2.88764 a 0.64675019,0.64675019 0 0 0 0.53181,0.281184 0.64675019,0.64675019 0 0 0 0.64707,-0.646683 0.64675019,0.64675019 0 0 0 -0.64707,-0.646682 0.64675019,0.64675019 0 0 0 -0.56585,0.337265 h -2.8536 v -1.434149 h 5.33397 a 0.64675019,0.64675019 0 0 0 0.53181,0.28157 0.64675019,0.64675019 0 0 0 0.64668,-0.647069 0.64675019,0.64675019 0 0 0 -0.64668,-0.646683 0.64675019,0.64675019 0 0 0 -0.56623,0.337652 h -5.29955 v -1.434536 h 2.9151 a 0.64675019,0.64675019 0 0 0 0.53259,0.28157 0.64675019,0.64675019 0 0 0 0.64668,-0.646682 0.64675019,0.64675019 0 0 0 -0.64668,-0.647069 0.64675019,0.64675019 0 0 0 -0.56624,0.337651 h -2.88145 v -0.364339 c 0,-0.366752 -0.11445,-0.704743 -0.30826,-0.983559 l 1.76407,-1.764066 a 0.64675019,0.64675019 0 0 0 0.57513,-0.177141 0.64675019,0.64675019 0 0 0 0,-0.914715 0.64675019,0.64675019 0 0 0 -0.91433,0 0.64675019,0.64675019 0 0 0 -0.16205,0.638947 l -1.74899,1.748594 c -0.26792,-0.171334 -0.58608,-0.271513 -0.92902,-0.271513 h -0.46954 v -3.348283 a 0.64675019,0.64675019 0 0 0 0.28079,-0.532197 0.64675019,0.64675019 0 0 0 -0.64668,-0.646683 0.64675019,0.64675019 0 0 0 -0.64668,0.646683 0.64675019,0.64675019 0 0 0 0.33727,0.565846 v 3.314634 h -1.43377 v -5.794613 a 0.64675019,0.64675019 0 0 0 0.2808,-0.532198 0.64675019,0.64675019 0 0 0 -0.64669,-0.646682 z m -1.19202,9.779134 0.51518,0.02823 -0.0189,0.446721 -0.32837,-0.02205 -1.05666,1.31193 1.06865,1.250432 h 0.33765 v 0.421581 h -0.50628 l -1.4624,-1.658863 z m 1.88396,0 h 0.50628 l 1.462,1.65925 -1.45117,1.777602 -0.51479,-0.02785 0.0186,-0.446722 0.32875,0.02205 1.05628,-1.312317 -1.06827,-1.250046 h -0.33764 z" /><rect
       style="display:inline;fill:url(#linearGradient32);stroke-width:0.463846"
       id="rect27-4"
       width="10.553001"
       height="3.0638552"
       x="140.98494"
       y="14.189175" /><rect
       style="display:inline;fill:url(#linearGradient29);stroke-width:0.463846"
       id="rect27-4-1"
       width="10.553001"
       height="3.0638552"
       x="157.96172"
       y="14.13127" /><rect
       style="display:inline;fill:url(#linearGradient28);stroke-width:0.463846"
       id="rect27-4-1-7"
       width="10.553001"
       height="3.0638552"
       x="174.93849"
       y="14.302068" /></g></svg>
