<?xml version="1.0" encoding="UTF-8" standalone="no"?>
<!-- Created with Inkscape (http://www.inkscape.org/) -->

<svg
   width="51.007267mm"
   height="56.794796mm"
   viewBox="0 0 51.007266 56.794796"
   version="1.1"
   id="svg1"
   xml:space="preserve"
   xmlns:xlink="http://www.w3.org/1999/xlink"
   xmlns="http://www.w3.org/2000/svg"
   xmlns:svg="http://www.w3.org/2000/svg"><defs
     id="defs1"><linearGradient
       id="swatch11"><stop
         style="stop-color:#d4ff2a;stop-opacity:1;"
         offset="0"
         id="stop11" /></linearGradient><linearGradient
       id="swatch4"><stop
         style="stop-color:#000000;stop-opacity:1;"
         offset="0"
         id="stop4" /></linearGradient><linearGradient
       id="swatch8"><stop
         style="stop-color:#ffff00;stop-opacity:0.10497197;"
         offset="0"
         id="stop8" /></linearGradient><linearGradient
       id="swatch3"><stop
         style="stop-color:#ffff00;stop-opacity:0.10497239;"
         offset="0"
         id="stop3" /></linearGradient><linearGradient
       id="swatch2"><stop
         style="stop-color:#000000;stop-opacity:1;"
         offset="0"
         id="stop2" /></linearGradient><linearGradient
       id="swatch6"><stop
         style="stop-color:#000000;stop-opacity:1;"
         offset="0"
         id="stop6" /></linearGradient><linearGradient
       id="swatch10"><stop
         style="stop-color:#2affd4;stop-opacity:1;"
         offset="0"
         id="stop10" /></linearGradient><linearGradient
       id="swatch7"><stop
         style="stop-color:#ffffff;stop-opacity:1;"
         offset="0"
         id="stop7" /></linearGradient><linearGradient
       id="swatch1"><stop
         style="stop-color:#b4b46f;stop-opacity:1;"
         offset="0"
         id="stop1" /></linearGradient><linearGradient
       id="linearGradient48"><stop
         style="stop-color:#099ec6;stop-opacity:1;"
         offset="0"
         id="stop47" /><stop
         style="stop-color:#084f67;stop-opacity:1;"
         offset="1"
         id="stop48" /></linearGradient><linearGradient
       id="swatch45"><stop
         style="stop-color:#000000;stop-opacity:1;"
         offset="0"
         id="stop45" /></linearGradient><linearGradient
       id="swatch33"><stop
         style="stop-color:#b42b6f;stop-opacity:1;"
         offset="0"
         id="stop33" /></linearGradient><linearGradient
       id="swatch32"><stop
         style="stop-color:#000000;stop-opacity:1;"
         offset="0"
         id="stop32" /></linearGradient><linearGradient
       id="swatch29"><stop
         style="stop-color:#000000;stop-opacity:1;"
         offset="0"
         id="stop29" /></linearGradient><linearGradient
       id="swatch22"><stop
         style="stop-color:#000000;stop-opacity:1;"
         offset="0"
         id="stop22" /></linearGradient><linearGradient
       id="swatch30"><stop
         style="stop-color:#b42b6f;stop-opacity:1;"
         offset="0"
         id="stop30" /></linearGradient><linearGradient
       xlink:href="#swatch7"
       id="linearGradient16"
       gradientUnits="userSpaceOnUse"
       x1="287.33347"
       y1="273.17041"
       x2="544.20264"
       y2="273.17041" /><linearGradient
       xlink:href="#swatch30"
       id="linearGradient3"
       x1="22.575703"
       y1="38.671982"
       x2="62.138851"
       y2="38.671982"
       gradientUnits="userSpaceOnUse" /><linearGradient
       xlink:href="#swatch7"
       id="linearGradient5"
       gradientUnits="userSpaceOnUse"
       x1="27.229862"
       y1="38.850342"
       x2="57.0606"
       y2="38.850342" /><linearGradient
       xlink:href="#swatch30"
       id="linearGradient8"
       x1="22.472761"
       y1="38.653149"
       x2="62.269978"
       y2="38.653149"
       gradientUnits="userSpaceOnUse" /><linearGradient
       xlink:href="#swatch30"
       id="linearGradient11"
       x1="22.472761"
       y1="24.965195"
       x2="64.312958"
       y2="24.965195"
       gradientUnits="userSpaceOnUse"
       gradientTransform="matrix(1.0507815,0,0,1.1338583,-2.7577277,33.827371)" /><linearGradient
       xlink:href="#swatch7"
       id="linearGradient12"
       gradientUnits="userSpaceOnUse"
       x1="287.33347"
       y1="273.17041"
       x2="544.20264"
       y2="273.17041" /><linearGradient
       xlink:href="#swatch7"
       id="linearGradient13"
       gradientUnits="userSpaceOnUse"
       x1="287.33347"
       y1="273.17041"
       x2="544.20264"
       y2="273.17041" /></defs><g
     id="layer1"
     transform="translate(-16.180388,-13.810533)"
     style="display:inline"><rect
       style="fill:url(#linearGradient11);stroke:none;stroke-width:0.647277"
       id="rect1"
       width="43.964699"
       height="11.767555"
       x="20.856234"
       y="56.250587"
       rx="4.203126" /><g
       id="text49"
       style="font-size:53.1543px;line-height:1.25;font-family:Avenir;-inkscape-font-specification:'Avenir, Normal';text-align:end;white-space:pre;fill:url(#linearGradient16);stroke-width:0.999467"
       transform="matrix(0.15984639,0,0,0.15984639,-45.687401,19.261154)"
       aria-label="CodeRioja"><path
         style="font-weight:500;-inkscape-font-specification:'Avenir, Medium';fill:url(#linearGradient12)"
         d="m 463.70862,257.41635 q -1.59463,-2.07301 -4.03973,-3.18925 -2.4451,-1.11624 -5.04966,-1.11624 -3.18926,0 -5.79382,1.22254 -2.5514,1.1694 -4.4118,3.24242 -1.80725,2.07301 -2.81718,4.89019 -1.00993,2.76403 -1.00993,5.95328 0,2.97665 0.95677,5.63436 0.95678,2.65772 2.76403,4.67758 1.80724,2.01986 4.41181,3.18926 2.60456,1.16939 5.90012,1.16939 3.24241,0 5.68751,-1.32886 2.4451,-1.32885 4.14604,-3.7208 l 4.3055,3.24242 q -0.42524,0.58469 -1.48832,1.70093 -1.06309,1.06309 -2.81718,2.17933 -1.75409,1.06309 -4.25235,1.8604 -2.44509,0.85047 -5.68751,0.85047 -4.46496,0 -8.07945,-1.70094 -3.56134,-1.70094 -6.11274,-4.46496 -2.49826,-2.76402 -3.82711,-6.21905 -1.32886,-3.50819 -1.32886,-7.06953 0,-4.35865 1.43516,-8.0263 1.43517,-3.7208 3.98658,-6.37851 2.60456,-2.71087 6.21905,-4.19919 3.61449,-1.48832 7.97315,-1.48832 3.7208,0 7.28213,1.43516 3.6145,1.43517 5.90013,4.41181 z m 13.8733,16.90307 q 0,1.91356 0.58469,3.56134 0.5847,1.59463 1.64779,2.76402 1.06308,1.11624 2.60456,1.80725 1.54147,0.63785 3.45503,0.63785 1.91355,0 3.45503,-0.63785 1.54147,-0.69101 2.60456,-1.80725 1.06308,-1.16939 1.64778,-2.76402 0.5847,-1.64778 0.5847,-3.56134 0,-1.91355 -0.5847,-3.50818 -0.5847,-1.64779 -1.64778,-2.76403 -1.06309,-1.16939 -2.60456,-1.80724 -1.54148,-0.69101 -3.45503,-0.69101 -1.91356,0 -3.45503,0.69101 -1.54148,0.63785 -2.60456,1.80724 -1.06309,1.11624 -1.64779,2.76403 -0.58469,1.59463 -0.58469,3.50818 z m -5.10282,0 q 0,-2.76402 1.00994,-5.15597 1.06308,-2.39194 2.87033,-4.19919 1.80724,-1.80724 4.25234,-2.81717 2.4451,-1.06309 5.26228,-1.06309 2.81718,0 5.26227,1.06309 2.4451,1.00993 4.25235,2.81717 1.80724,1.80725 2.81718,4.19919 1.06308,2.39195 1.06308,5.15597 0,2.76403 -1.06308,5.20912 -1.00994,2.39195 -2.81718,4.19919 -1.80725,1.75409 -4.25235,2.81718 -2.44509,1.00993 -5.26227,1.00993 -2.81718,0 -5.26228,-1.00993 -2.4451,-1.06309 -4.25234,-2.81718 -1.80725,-1.80724 -2.87033,-4.19919 -1.00994,-2.44509 -1.00994,-5.20912 z m 58.04449,12.59757 h -4.78388 v -3.61449 h -0.10631 q -1.38201,2.01986 -3.82711,3.1361 -2.39195,1.11624 -4.94335,1.11624 -2.92349,0 -5.31543,-1.00993 -2.33879,-1.00993 -4.03973,-2.81718 -1.64778,-1.80724 -2.55141,-4.19919 -0.90362,-2.39194 -0.90362,-5.20912 0,-2.81718 0.90362,-5.20912 0.90363,-2.4451 2.55141,-4.19919 1.70094,-1.80725 4.03973,-2.81718 2.39194,-1.00993 5.31543,-1.00993 2.71087,0 5.10281,1.1694 2.39194,1.11624 3.66765,3.08294 h 0.10631 v -18.604 h 4.78388 z m -13.07596,-3.82711 q 1.91356,0 3.45503,-0.63785 1.54148,-0.69101 2.60456,-1.80725 1.06309,-1.16939 1.64779,-2.76402 0.5847,-1.64778 0.5847,-3.56134 0,-1.91355 -0.5847,-3.50818 -0.5847,-1.64779 -1.64779,-2.76403 -1.06308,-1.16939 -2.60456,-1.80724 -1.54147,-0.69101 -3.45503,-0.69101 -1.91355,0 -3.45502,0.69101 -1.54148,0.63785 -2.60457,1.80724 -1.06308,1.11624 -1.64778,2.76403 -0.5847,1.59463 -0.5847,3.50818 0,1.91356 0.5847,3.56134 0.5847,1.59463 1.64778,2.76402 1.06309,1.11624 2.60457,1.80725 1.54147,0.63785 3.45502,0.63785 z m 23.91944,-7.01637 q 0,1.64779 0.69101,3.0298 0.74416,1.32886 1.91355,2.28563 1.1694,0.95678 2.71087,1.48832 1.54148,0.53155 3.18926,0.53155 2.23248,0 3.88026,-1.00993 1.64779,-1.06309 3.0298,-2.76403 l 3.61449,2.76403 q -3.98657,5.15596 -11.1624,5.15596 -2.97664,0 -5.42174,-1.00993 -2.39194,-1.00993 -4.09288,-2.76402 -1.64778,-1.80725 -2.55141,-4.19919 -0.90362,-2.4451 -0.90362,-5.26228 0,-2.81718 0.95678,-5.20912 1.00993,-2.4451 2.71087,-4.19919 1.75409,-1.80725 4.14603,-2.81718 2.39194,-1.00993 5.20912,-1.00993 3.34872,0 5.63436,1.1694 2.33879,1.16939 3.82711,3.08294 1.48832,1.86041 2.12617,4.25235 0.69101,2.33879 0.69101,4.78389 v 1.70093 z m 15.09582,-3.82711 q -0.0531,-1.59463 -0.53154,-2.92348 -0.42523,-1.32886 -1.32886,-2.28564 -0.90362,-1.00993 -2.28563,-1.54147 -1.32886,-0.5847 -3.13611,-0.5847 -1.75409,0 -3.24241,0.69101 -1.43516,0.63785 -2.4451,1.70093 -1.00993,1.06309 -1.59463,2.39195 -0.53154,1.2757 -0.53154,2.5514 z"
         id="path30" /><path
         d="m 572.62179,265.92104 h 6.80375 q 2.55141,0 4.3055,-0.53154 1.80724,-0.53154 2.87033,-1.38201 1.06309,-0.90363 1.54147,-2.07302 0.47839,-1.22255 0.47839,-2.60456 0,-1.32886 -0.47839,-2.49825 -0.47838,-1.22255 -1.54147,-2.12618 -1.06309,-0.90362 -2.87033,-1.38201 -1.75409,-0.53154 -4.3055,-0.53154 h -6.80375 z m 0,20.99595 h -3.82711 v -37.63324 h 11.58764 q 5.74066,0 9.03623,2.49825 3.34872,2.49825 3.34872,7.54791 0,3.93342 -2.49825,6.64429 -2.4451,2.65771 -7.12268,3.08295 l 10.84348,17.85984 h -4.67758 l -10.31193,-17.48776 h -6.37852 z M 604.14231,252.473 q 0,1.11624 -0.79731,1.8604 -0.79732,0.69101 -1.75409,0.69101 -0.95678,0 -1.7541,-0.69101 -0.79731,-0.74416 -0.79731,-1.8604 0,-1.11624 0.79731,-1.80724 0.79732,-0.74416 1.7541,-0.74416 0.95677,0 1.75409,0.74416 0.79731,0.691 0.79731,1.80724 z m -0.79731,34.44399 h -3.50819 v -24.87621 h 3.50819 z m 29.76639,-12.43811 q 0,-2.07301 -0.691,-3.88026 -0.63785,-1.80725 -1.8604,-3.1361 -1.22255,-1.32886 -2.97664,-2.07302 -1.70094,-0.79732 -3.88027,-0.79732 -2.17932,0 -3.93342,0.79732 -1.70093,0.74416 -2.92348,2.07302 -1.1694,1.32885 -1.8604,3.1361 -0.63786,1.80725 -0.63786,3.88026 0,2.07302 0.63786,3.88027 0.691,1.80724 1.8604,3.1361 1.22255,1.32886 2.92348,2.12617 1.7541,0.74416 3.93342,0.74416 2.17933,0 3.88027,-0.74416 1.75409,-0.79731 2.97664,-2.12617 1.22255,-1.32886 1.8604,-3.1361 0.691,-1.80725 0.691,-3.88027 z m 3.82711,0 q 0,2.81718 -1.00993,5.20913 -0.95678,2.39194 -2.71087,4.14603 -1.75409,1.75409 -4.19919,2.76403 -2.39194,0.95677 -5.31543,0.95677 -2.87033,0 -5.31543,-0.95677 -2.39194,-1.00994 -4.14603,-2.76403 -1.7541,-1.75409 -2.76403,-4.14603 -0.95677,-2.39195 -0.95677,-5.20913 0,-2.81717 0.95677,-5.20912 1.00993,-2.39194 2.76403,-4.14603 1.75409,-1.75409 4.14603,-2.71087 2.4451,-1.00993 5.31543,-1.00993 2.92349,0 5.31543,1.00993 2.4451,0.95678 4.19919,2.71087 1.75409,1.75409 2.71087,4.14603 1.00993,2.39195 1.00993,5.20912 z M 648.41985,252.473 q 0,1.11624 -0.79731,1.8604 -0.79731,0.69101 -1.75409,0.69101 -0.95678,0 -1.75409,-0.69101 -0.79732,-0.74416 -0.79732,-1.8604 0,-1.11624 0.79732,-1.80724 0.79731,-0.74416 1.75409,-0.74416 0.95678,0 1.75409,0.74416 0.79731,0.691 0.79731,1.80724 z m -10.09931,43.63968 0.15946,0.0532 q 0.42523,0.10631 0.95678,0.21262 0.47839,0.10631 0.90362,0.10631 1.2757,0 2.01986,-0.47839 0.79732,-0.47839 1.1694,-1.27571 0.37208,-0.74416 0.47839,-1.64778 0.10631,-0.90362 0.10631,-1.80725 v -29.23486 h 3.50818 v 29.81956 q 0,0.53154 -0.0531,1.80725 -0.0532,1.32885 -0.69101,2.65771 -0.5847,1.32886 -2.07302,2.33879 -1.43516,1.00993 -4.19919,1.00993 -1.48832,0 -2.76402,-0.53154 z m 31.89256,-21.58064 q -1.32885,0 -3.34872,0.15946 -1.96671,0.10631 -3.82711,0.63785 -1.80724,0.47839 -3.1361,1.54148 -1.2757,1.06308 -1.2757,2.92348 0,1.22255 0.47839,2.12618 0.53154,0.85047 1.38201,1.43516 0.85047,0.53155 1.8604,0.79732 1.06308,0.21261 2.12617,0.21261 1.91355,0 3.29557,-0.63785 1.43516,-0.63785 2.39194,-1.70093 0.95678,-1.11625 1.38201,-2.55141 0.47839,-1.48832 0.47839,-3.1361 v -1.80725 z m 1.80725,-2.87033 v -0.63785 q 0,-6.43168 -6.37852,-6.43168 -4.35865,0 -7.60106,2.92349 l -2.12617,-2.49825 q 3.50818,-3.61449 10.52455,-3.61449 1.80725,0 3.45503,0.53154 1.70094,0.53154 2.92349,1.64778 1.22254,1.06309 1.9667,2.71087 0.74416,1.64779 0.74416,3.93342 v 11.10925 q 0,1.43517 0.10631,3.02979 0.15947,1.54148 0.31893,2.55141 h -3.40188 q -0.15946,-0.90362 -0.26577,-1.96671 -0.0531,-1.06308 -0.0531,-2.07302 h -0.10631 q -1.54148,2.49826 -3.66765,3.6145 -2.07302,1.06308 -5.10281,1.06308 -1.64778,0 -3.18926,-0.47839 -1.54147,-0.42523 -2.76402,-1.32885 -1.1694,-0.95678 -1.91356,-2.28564 -0.691,-1.38201 -0.691,-3.18926 0,-3.02979 1.54147,-4.73073 1.59463,-1.75409 3.93342,-2.60456 2.39194,-0.85047 5.04966,-1.06309 2.71087,-0.21261 4.94335,-0.21261 z"
         id="path31"
         style="fill:url(#linearGradient13)" /></g><ellipse
       style="display:inline;fill:url(#linearGradient3);stroke:none;stroke-width:0.593;stroke-dasharray:none"
       id="ellipse49"
       cx="42.357277"
       cy="38.671982"
       rx="19.781574"
       ry="18.75437" /><rect
       style="display:none;fill:url(#linearGradient8);stroke-width:0.593;stroke-dasharray:none"
       id="rect5"
       width="39.797215"
       height="37.590801"
       x="22.472761"
       y="19.857748"
       rx="2" /><path
       id="path4"
       style="fill:url(#linearGradient5);stroke:none;stroke-width:0.0765039;stroke-opacity:1;fill-opacity:1"
       d="m 42.122493,23.610962 a 0.86412086,0.86412086 0 0 0 -0.864029,0.86403 0.86412086,0.86412086 0 0 0 0.451135,0.75706 v 7.696171 h -1.916162 v -4.510836 a 0.86412086,0.86412086 0 0 0 0.375687,-0.711585 0.86412086,0.86412086 0 0 0 -0.864546,-0.86403 0.86412086,0.86412086 0 0 0 -0.86403,0.86403 0.86412086,0.86412086 0 0 0 0.451135,0.75706 v 4.465361 h -0.665076 c -0.425629,0 -0.822394,0.116525 -1.163753,0.316259 l -2.336808,-2.336808 a 0.86412086,0.86412086 0 0 0 -0.237712,-0.769462 0.86412086,0.86412086 0 0 0 -1.222147,0 0.86412086,0.86412086 0 0 0 0,1.222148 0.86412086,0.86412086 0 0 0 0.853694,0.216007 l 2.268079,2.268596 c -0.290544,0.385392 -0.464055,0.863997 -0.464055,1.385961 v 0.373621 h -3.848343 a 0.86412086,0.86412086 0 0 0 -0.713135,-0.375171 0.86412086,0.86412086 0 0 0 -0.863513,0.863513 0.86412086,0.86412086 0 0 0 0.863513,0.864547 0.86412086,0.86412086 0 0 0 0.757059,-0.450618 h 3.804419 v 1.915645 H 28.80651 a 0.86412086,0.86412086 0 0 0 -0.712101,-0.375171 0.86412086,0.86412086 0 0 0 -0.864547,0.863513 0.86412086,0.86412086 0 0 0 0.864547,0.86403 0.86412086,0.86412086 0 0 0 0.75551,-0.450102 h 7.073986 v 1.915646 h -3.886067 a 0.86412086,0.86412086 0 0 0 -0.712618,-0.375171 0.86412086,0.86412086 0 0 0 -0.86403,0.863513 0.86412086,0.86412086 0 0 0 0.86403,0.86403 0.86412086,0.86412086 0 0 0 0.756026,-0.450618 h 3.842659 v 0.505912 c 0,0.46394 0.136819,0.894496 0.371037,1.25522 l -2.228804,2.228288 a 0.86412086,0.86412086 0 0 0 -0.768429,0.237195 0.86412086,0.86412086 0 0 0 0,1.222148 0.86412086,0.86412086 0 0 0 1.222148,0 0.86412086,0.86412086 0 0 0 0.217558,-0.855245 l 2.186429,-2.18643 c 0.370007,0.253374 0.818529,0.401526 1.302763,0.401526 h 0.65009 v 4.295345 a 0.86412086,0.86412086 0 0 0 -0.375688,0.710551 0.86412086,0.86412086 0 0 0 0.864547,0.864546 0.86412086,0.86412086 0 0 0 0.863513,-0.864546 0.86412086,0.86412086 0 0 0 -0.450618,-0.75861 v -4.247286 h 1.916162 v 7.563362 a 0.86412086,0.86412086 0 0 0 -0.375688,0.711585 0.86412086,0.86412086 0 0 0 0.86403,0.86403 0.86412086,0.86412086 0 0 0 0.864547,-0.86403 0.86412086,0.86412086 0 0 0 -0.451136,-0.75861 v -7.516337 h 1.915646 v 4.333068 a 0.86412086,0.86412086 0 0 0 -0.375171,0.710551 0.86412086,0.86412086 0 0 0 0.86403,0.864547 0.86412086,0.86412086 0 0 0 0.864546,-0.864547 0.86412086,0.86412086 0 0 0 -0.451135,-0.758093 v -4.285526 h 0.642338 c 0.444229,0 0.857139,-0.126418 1.208195,-0.342615 l 2.262394,2.262911 a 0.86412086,0.86412086 0 0 0 0.237712,0.767912 0.86412086,0.86412086 0 0 0 1.222148,0 0.86412086,0.86412086 0 0 0 0,-1.221631 0.86412086,0.86412086 0 0 0 -0.853695,-0.216524 L 47.92524,43.993697 c 0.272299,-0.378253 0.434082,-0.841957 0.434082,-1.345654 v -0.393258 h 3.858163 a 0.86412086,0.86412086 0 0 0 0.71055,0.375688 0.86412086,0.86412086 0 0 0 0.864547,-0.86403 0.86412086,0.86412086 0 0 0 -0.864547,-0.86403 0.86412086,0.86412086 0 0 0 -0.756026,0.450618 h -3.812687 v -1.916162 h 7.126697 a 0.86412086,0.86412086 0 0 0 0.710551,0.376205 0.86412086,0.86412086 0 0 0 0.86403,-0.864547 0.86412086,0.86412086 0 0 0 -0.86403,-0.86403 0.86412086,0.86412086 0 0 0 -0.756543,0.451135 h -7.080705 v -1.916679 h 3.894853 a 0.86412086,0.86412086 0 0 0 0.711584,0.376205 0.86412086,0.86412086 0 0 0 0.86403,-0.86403 0.86412086,0.86412086 0 0 0 -0.86403,-0.864547 0.86412086,0.86412086 0 0 0 -0.756543,0.451135 h -3.849894 v -0.486792 c 0,-0.490017 -0.152921,-0.941605 -0.411861,-1.314131 l 2.356962,-2.356962 a 0.86412086,0.86412086 0 0 0 0.768429,-0.236678 0.86412086,0.86412086 0 0 0 0,-1.222148 0.86412086,0.86412086 0 0 0 -1.221631,0 0.86412086,0.86412086 0 0 0 -0.216525,0.853695 l -2.336808,2.336291 C 46.93991,33.062073 46.514827,32.928223 46.05662,32.928223 h -0.627352 v -4.473629 a 0.86412086,0.86412086 0 0 0 0.375171,-0.711068 0.86412086,0.86412086 0 0 0 -0.86403,-0.86403 0.86412086,0.86412086 0 0 0 -0.86403,0.86403 0.86412086,0.86412086 0 0 0 0.450619,0.756026 v 4.428671 H 42.611353 V 25.18606 a 0.86412086,0.86412086 0 0 0 0.37517,-0.711068 0.86412086,0.86412086 0 0 0 -0.86403,-0.86403 z m -1.592667,13.065869 0.68833,0.03772 -0.02532,0.596863 -0.438732,-0.02946 -1.411801,1.752865 1.42782,1.670699 h 0.451136 v 0.563273 h -0.676445 l -1.953886,-2.216402 z m 2.517159,0 h 0.676444 l 1.95337,2.216919 -1.9389,2.375049 -0.687814,-0.03721 0.02481,-0.596863 0.43925,0.02946 1.411283,-1.753382 -1.427303,-1.670182 H 43.04699 Z" /></g></svg>
